<svg xmlns="http://www.w3.org/2000/svg" width="171.744" height="48.134" viewBox="0 0 171.744 48.134">
  <g id="Mifinity_combo" data-name="Mifinity combo" transform="translate(-1069 -584)">
    <g id="Group_5" data-name="Group 5" transform="translate(1136.708 584)">
      <path id="Path_1" data-name="Path 1" d="M41.3.1h3.411l6.481,15.35L57.5.1h3.411V23.636H57.332V8.969h0l-5.117,12.28H50.169L44.882,8.969h0V23.636H41.3Z" transform="translate(-41.3 -0.1)" fill="#fff"/>
      <rect id="Rectangle_1" data-name="Rectangle 1" width="3.24" height="16.714" transform="translate(24.559 6.822)" fill="#fff"/>
      <path id="Path_2" data-name="Path 2" d="M60.4.1H73.191V3.511h-9.38V10.5h9.38v3.07h-9.38V23.636H60.4Z" transform="translate(-27.825 -0.1)" fill="#fff"/>
      <rect id="Rectangle_2" data-name="Rectangle 2" width="3.24" height="16.714" transform="translate(48.777 6.822)" fill="#fff"/>
      <path id="Path_3" data-name="Path 3" d="M74.5,4.171h3.24V5.876h0A4.836,4.836,0,0,1,82,4a5.6,5.6,0,0,1,3.752,1.535,5.325,5.325,0,0,1,1.705,4.434V21.055h-3.24V10.993a4.34,4.34,0,0,0-.853-2.729,2.77,2.77,0,0,0-2.388-.853,4.075,4.075,0,0,0-2.388.853,4,4,0,0,0-.853,2.729V21.055H74.5V4.171Z" transform="translate(-17.877 2.651)" fill="#fff"/>
      <rect id="Rectangle_3" data-name="Rectangle 3" width="3.24" height="16.714" transform="translate(73.848 6.822)" fill="#fff"/>
      <path id="Path_4" data-name="Path 4" d="M89.935.2h3.24V6.851h2.388V9.41H93.175v9.721c0,.853.341,1.194,1.194,1.194h1.194v3.24H93.858a3.6,3.6,0,0,1-2.729-1.023,4.231,4.231,0,0,1-1.194-3.07V9.41H88.4V6.851h1.535V.2Z" transform="translate(-8.071 -0.029)" fill="#fff"/>
      <path id="Path_5" data-name="Path 5" d="M93.9,4.1h3.411l3.752,11.768h0L104.815,4.1h3.411l-6.993,20.3a4.407,4.407,0,0,1-4.6,3.24H95.606V24.4h1.023a2.465,2.465,0,0,0,1.194-.341,2.174,2.174,0,0,0,.682-1.023l.853-2.729Z" transform="translate(-4.191 2.722)" fill="#fff"/>
      <circle id="Ellipse_1" data-name="Ellipse 1" cx="2.047" cy="2.047" r="2.047" transform="translate(24.048 0)" fill="#fff"/>
      <circle id="Ellipse_2" data-name="Ellipse 2" cx="2.047" cy="2.047" r="2.047" transform="translate(48.436 0)" fill="#fff"/>
      <circle id="Ellipse_3" data-name="Ellipse 3" cx="2.047" cy="2.047" r="2.047" transform="translate(73.337 0)" fill="#fff"/>
    </g>
    <g id="Group_2" data-name="Group 2" transform="translate(1069 584)">
      <g id="Group_1" data-name="Group 1" transform="translate(0 0)">
        <circle id="Ellipse_4" data-name="Ellipse 4" cx="1.023" cy="1.023" r="1.023" transform="translate(23.706 6.651)" fill="#fff"/>
        <circle id="Ellipse_5" data-name="Ellipse 5" cx="1.023" cy="1.023" r="1.023" transform="translate(21.148 4.605)" fill="#fff"/>
        <circle id="Ellipse_6" data-name="Ellipse 6" cx="1.194" cy="1.194" r="1.194" transform="translate(18.249 2.729)" fill="#fff"/>
        <circle id="Ellipse_7" data-name="Ellipse 7" cx="1.194" cy="1.194" r="1.194" transform="translate(15.008 1.364)" fill="#fff"/>
        <circle id="Ellipse_8" data-name="Ellipse 8" cx="1.364" cy="1.364" r="1.364" transform="translate(11.086 0.853)" fill="#fff"/>
        <circle id="Ellipse_9" data-name="Ellipse 9" cx="1.535" cy="1.535" r="1.535" transform="translate(6.993 1.535)" fill="#fff"/>
        <circle id="Ellipse_10" data-name="Ellipse 10" cx="1.706" cy="1.706" r="1.706" transform="translate(3.07 3.923)" fill="#fff"/>
        <circle id="Ellipse_11" data-name="Ellipse 11" cx="1.706" cy="1.706" r="1.706" transform="translate(0.341 7.845)" fill="#fff"/>
        <circle id="Ellipse_12" data-name="Ellipse 12" cx="1.876" cy="1.876" r="1.876" transform="translate(0 12.962)" fill="#fff"/>
        <circle id="Ellipse_13" data-name="Ellipse 13" cx="2.217" cy="2.217" r="2.217" transform="translate(2.729 17.396)" fill="#fff"/>
        <circle id="Ellipse_14" data-name="Ellipse 14" cx="1.876" cy="1.876" r="1.876" transform="translate(26.606 10.404)" fill="#fff"/>
        <circle id="Ellipse_15" data-name="Ellipse 15" cx="2.047" cy="2.047" r="2.047" transform="translate(30.699 5.969)" fill="#fff"/>
        <circle id="Ellipse_16" data-name="Ellipse 16" cx="2.217" cy="2.217" r="2.217" transform="translate(21.489 14.326)" fill="#fff"/>
        <circle id="Ellipse_17" data-name="Ellipse 17" cx="2.558" cy="2.558" r="2.558" transform="translate(15.691 17.396)" fill="#fff"/>
        <circle id="Ellipse_18" data-name="Ellipse 18" cx="2.899" cy="2.899" r="2.899" transform="translate(8.357 18.59)" fill="#fff"/>
        <circle id="Ellipse_19" data-name="Ellipse 19" cx="2.558" cy="2.558" r="2.558" transform="translate(35.816 1.876)" fill="#fff"/>
        <circle id="Ellipse_20" data-name="Ellipse 20" cx="2.729" cy="2.729" r="2.729" transform="translate(42.467)" fill="#fff"/>
        <circle id="Ellipse_21" data-name="Ellipse 21" cx="2.217" cy="2.217" r="2.217" transform="translate(49.118 2.388)" fill="#fff"/>
        <circle id="Ellipse_22" data-name="Ellipse 22" cx="1.876" cy="1.876" r="1.876" transform="translate(52.53 8.016)" fill="#fff"/>
        <circle id="Ellipse_23" data-name="Ellipse 23" cx="1.706" cy="1.706" r="1.706" transform="translate(52.7 13.473)" fill="#fff"/>
        <circle id="Ellipse_24" data-name="Ellipse 24" cx="1.535" cy="1.535" r="1.535" transform="translate(49.971 17.396)" fill="#fff"/>
        <circle id="Ellipse_25" data-name="Ellipse 25" cx="1.535" cy="1.535" r="1.535" transform="translate(46.39 19.784)" fill="#fff"/>
        <circle id="Ellipse_26" data-name="Ellipse 26" cx="1.364" cy="1.364" r="1.364" transform="translate(42.638 20.807)" fill="#fff"/>
        <circle id="Ellipse_27" data-name="Ellipse 27" cx="1.194" cy="1.194" r="1.194" transform="translate(39.056 20.637)" fill="#fff"/>
        <circle id="Ellipse_28" data-name="Ellipse 28" cx="1.023" cy="1.023" r="1.023" transform="translate(35.986 19.443)" fill="#fff"/>
        <circle id="Ellipse_29" data-name="Ellipse 29" cx="1.023" cy="1.023" r="1.023" transform="translate(33.257 17.908)" fill="#fff"/>
      </g>
    </g>
    <g id="Group_6" data-name="Group 6" transform="translate(0 -0.642)">
      <g id="layer1" transform="translate(1136.708 615)">
        <path id="_92653320" d="M17.717,25.327a3.2,3.2,0,0,1,3.2-3.189H55.85a3.2,3.2,0,0,1,3.2,3.189v11.4a3.2,3.2,0,0,1-3.2,3.189H20.922a3.2,3.2,0,0,1-3.2-3.189v-11.4Z" transform="translate(-17.717 -22.137)" fill="#000268" fill-rule="evenodd"/>
        <path id="_92186184" d="M45.9,52.107V63.288a2,2,0,0,0,2,1.993h18.3V50.114h-18.3a2,2,0,0,0-2,1.993Zm25.031,5.535c0,.712-.352,1.2-.935,1.2a1.048,1.048,0,0,1-.944-1.141c0-.669.378-1.167.944-1.167A.989.989,0,0,1,70.935,57.642Zm-3.423,4.083h1.543V59.3h.017a1.552,1.552,0,0,0,1.416.729c1.329,0,2.041-1.1,2.041-2.419a2.085,2.085,0,0,0-1.913-2.256,1.762,1.762,0,0,0-1.664.91h-.017v-.806H67.513Zm7.126-3.217c0-.429.411-.591.935-.591.231,0,.455.016.652.025A1.006,1.006,0,0,1,75.273,59C74.913,59,74.639,58.818,74.639,58.508Zm3.113,1.415a5.508,5.508,0,0,1-.085-1.055V57.2c0-1.364-.986-1.853-2.127-1.853a4.614,4.614,0,0,0-1.784.318l.026,1.047a2.9,2.9,0,0,1,1.423-.335c.557,0,1.011.163,1.021.773a4.5,4.5,0,0,0-.721-.061c-.823,0-2.307.163-2.307,1.527,0,.97.789,1.406,1.672,1.406a1.531,1.531,0,0,0,1.415-.806H76.3c0,.232.025.463.034.7Zm.695,1.8a4.492,4.492,0,0,0,.96.1c1.416,0,1.75-1.09,2.187-2.214l1.639-4.16H81.688l-.918,2.916h-.017l-.961-2.916H78.129l1.81,4.571a.785.785,0,0,1-.781.618,1.854,1.854,0,0,1-.609-.094Z" transform="translate(-44.589 -48.809)" fill="#fff" fill-rule="evenodd"/>
        <path id="_47303032" d="M94.117,128.728c0-.609.3-1.116.875-1.116a.977.977,0,0,1,.986,1.055,1.043,1.043,0,0,1-.986,1.149C94.529,129.817,94.117,129.423,94.117,128.728Zm3.354-2.2h-1.4v.806h-.016a1.747,1.747,0,0,0-1.519-.91c-1.389,0-2.016,1-2.016,2.325A2.008,2.008,0,0,0,94.511,131a1.741,1.741,0,0,0,1.5-.764h.017v.241c0,.875-.48,1.295-1.372,1.295a3.072,3.072,0,0,1-1.51-.369l-.077,1.218a5.189,5.189,0,0,0,1.707.283c1.8,0,2.693-.592,2.693-2.428Zm2.609-1.861H98.536V125.8h1.544ZM98.537,131h1.543v-4.469H98.537Zm5.842-4.521a3.337,3.337,0,0,0-.523-.052,1.379,1.379,0,0,0-1.321.927h-.017v-.823h-1.406V131h1.544v-1.886c0-.875.4-1.4,1.124-1.4a1.8,1.8,0,0,1,.523.051Zm2.658,3.543c-.712,0-1-.592-1-1.252s.291-1.261,1-1.261,1,.592,1,1.261S107.75,130.023,107.038,130.023Zm0,1.08a2.351,2.351,0,1,0-2.6-2.332A2.341,2.341,0,0,0,107.038,131.1Z" transform="translate(-89.031 -119.886)" fill="#ff0007" fill-rule="evenodd"/>
      </g>
      <g id="Group_3" data-name="Group 3" transform="translate(1195.45 619)">
        <path id="klarna-ar21" d="M26.082,19.824H23.873a6.084,6.084,0,0,1-3.323,5.313L23.964,30.1H26.74l-3.1-4.509a8.25,8.25,0,0,0,2.447-5.769ZM17.94,30.1h2.282V19.824H17.94Zm40.037-6.389a3.63,3.63,0,0,0-5.715,2.957,3.624,3.624,0,0,0,3.615,3.615,3.761,3.761,0,0,0,2.1-.658V30.1h1.789V23.238H57.977Zm-1.935,4.8a1.846,1.846,0,1,1,1.935-1.844A1.883,1.883,0,0,1,56.041,28.513Zm5.9-.84a1.29,1.29,0,1,0,.918.378A1.3,1.3,0,0,0,61.938,27.674ZM48.606,23.055A2.5,2.5,0,0,0,46.488,24v-.767H44.425V30.1h2.063V26.341a1.446,1.446,0,0,1,1.552-1.552,1.348,1.348,0,0,1,1.424,1.534v3.761h2.063V25.719a2.723,2.723,0,0,0-2.921-2.666Zm-12.287.658a3.62,3.62,0,1,0-2.1,6.572,3.762,3.762,0,0,0,2.1-.658V30.1h1.789V23.238H36.32Zm-1.917,4.8a1.846,1.846,0,1,1,1.935-1.844A1.883,1.883,0,0,1,34.4,28.513Zm7.042-4.345v-.913H39.381V30.12h2.063v-3.6a1.522,1.522,0,0,1,1.99-1.278h.018V23.255a2.4,2.4,0,0,0-2.008.913ZM27.579,30.1H29.77V19.824H27.579Z" transform="translate(-17.94 -19.823)" fill="#e9778d" fill-rule="evenodd"/>
      </g>
      <line id="Line_1" data-name="Line 1" x1="6.584" y2="8.778" transform="translate(1182.355 619.5)" fill="none" stroke="#3d3d3d" stroke-linecap="round" stroke-width="1"/>
    </g>
    <g id="Group_4" data-name="Group 4" transform="translate(1069 618.345)">
      <rect id="Rectangle" width="52.347" height="1.685" rx="0.843" transform="translate(0 3.484)" fill="#3d3d3d"/>
      <path id="Path" d="M3.929,1.4,5.615-.284l-.139,5.76-5.76.139L1.4,3.929,3.87,3.87Z" transform="translate(48.538 4.285) rotate(-45)" fill="#3d3d3d"/>
    </g>
  </g>
</svg>
