<?xml version="1.0" encoding="utf-8"?>
<!-- Generator: Adobe Illustrator 24.0.2, SVG Export Plug-In . SVG Version: 6.00 Build 0)  -->
<svg version="1.1" id="Layer_1" xmlns="http://www.w3.org/2000/svg" xmlns:xlink="http://www.w3.org/1999/xlink" x="0px" y="0px"
	 viewBox="0 0 213 55.4" style="enable-background:new 0 0 213 55.4;" xml:space="preserve">
<style type="text/css">
	.st0{display:none;fill:#0B0C0C;}
	.st1{display:none;}
	.st2{display:inline;fill-rule:evenodd;clip-rule:evenodd;fill:#F9B862;}
	.st3{display:inline;fill-rule:evenodd;clip-rule:evenodd;fill:#FFFFFF;}
	.st4{display:inline;fill:#FFFFFF;}
	.st5{fill-rule:evenodd;clip-rule:evenodd;fill:#F9B862;}
	.st6{fill-rule:evenodd;clip-rule:evenodd;fill:#FFFFFF;}
	.st7{fill:#FFFFFF;}
</style>
<rect x="-28.9" y="-21.9" class="st0" width="270.4" height="124.9"/>
<g class="st1">
	<path class="st2" d="M207.9,22.9h-1.4v-1.3c0,0,0,0.7,0.3,1C207.2,23,207.9,22.9,207.9,22.9z M195.1,7.3h16.1
		c0.7,0,1.2,0.6,1.2,1.2v4.2h-16.1c-0.7,0-1.2-0.6-1.2-1.2L195.1,7.3L195.1,7.3z"/>
	<path class="st2" d="M203.3,22.9h8c0.7,0,1.2,0.6,1.2,1.2v4.2h-9.3L203.3,22.9L203.3,22.9z"/>
	<path class="st2" d="M202.5,0.2h4v28.2h-4c-1.4,0-2.5-1.1-2.5-2.5V2.7C200,1.3,201.1,0.2,202.5,0.2z M177.8,22.9h-1.4v-1.3
		c0,0,0,0.7,0.3,1C177.1,23,177.8,22.9,177.8,22.9z"/>
	<path class="st2" d="M173.2,22.9h15c0.7,0,1.2,0.6,1.2,1.2v4.2h-16.2V22.9z"/>
	<path class="st2" d="M170,17.8h6.5v10.6h-4c-1.4,0-2.5-1.1-2.5-2.5V17.8z"/>
	<path class="st2" d="M188.3,7.3h-15.9c-1.4,0-2.5,1.1-2.5,2.5v10.5h18.3c1.4,0,2.5-1.1,2.5-2.5V9.8C190.8,8.4,189.7,7.3,188.3,7.3z
		 M184.3,15.3c0,0.7-0.6,1.2-1.2,1.2h-6.6v-4.2h6.6c0.7,0,1.2,0.6,1.2,1.2V15.3z"/>
	<polygon class="st2" points="144.8,3.9 151.3,0.2 151.3,12.8 144.8,12.8 	"/>
	<path class="st2" d="M163.1,7.3h-18.3v21.1h18.3c1.4,0,2.5-1.1,2.5-2.5V9.8C165.6,8.4,164.5,7.3,163.1,7.3z M159.2,21.7
		c0,0.7-0.6,1.2-1.2,1.2h-6.6V12.8h6.6c0.7,0,1.2,0.6,1.2,1.2V21.7z"/>
	<path class="st3" d="M138,7.3h-15.9c-1.4,0-2.5,1.1-2.5,2.5v10.5H138c1.4,0,2.5-1.1,2.5-2.5V9.8C140.5,8.4,139.4,7.3,138,7.3z
		 M134,15.3c0,0.7-0.6,1.2-1.2,1.2h-6.6v-4.2h6.6c0.7,0,1.2,0.6,1.2,1.2V15.3z M127.5,22.9h-1.4v-1.3c0,0,0,0.7,0.3,1
		C126.8,23,127.5,22.9,127.5,22.9z"/>
	<path class="st3" d="M124.3,22.9h13.6c0.7,0,1.2,0.6,1.2,1.2v4.2h-14.8V22.9L124.3,22.9z"/>
	<path class="st3" d="M119.7,17.8h6.5v10.6h-4c-1.4,0-2.5-1.1-2.5-2.5V17.8z"/>
	<polygon class="st3" points="97.7,7.3 112.1,7.3 112.1,12.7 97.7,12.7 	"/>
	<path class="st3" d="M107.4,12.7h1.4V14c0,0,0-0.7-0.3-1C108.1,12.7,107.4,12.7,107.4,12.7z"/>
	<path class="st3" d="M108.8,7.3h4c1.4,0,2.5,1.1,2.5,2.5v18.7h-6.5V7.3z"/>
	<polygon class="st3" points="94.5,7.3 101,7.3 101,28.4 94.5,28.4 	"/>
	<path class="st3" d="M82.3,12.7h1.4V14c0,0,0-0.7-0.3-1C83,12.7,82.3,12.7,82.3,12.7z"/>
	<path class="st3" d="M70.7,7.3h15.4v5.5H71.9c-0.7,0-1.2-0.6-1.2-1.2V7.3z"/>
	<path class="st3" d="M83.7,7.3h4c1.4,0,2.5,1.1,2.5,2.5v8.1h-6.5V7.3z"/>
	<path class="st3" d="M71.8,15.4c-1.4,0-2.5,1.1-2.5,2.5v8.1c0,1.4,1.1,2.5,2.5,2.5h18.3v-13L71.8,15.4L71.8,15.4z M83.7,23.4H77
		c-0.7,0-1.2-0.6-1.2-1.2v-1.7c0-0.7,0.6-1.2,1.2-1.2h6.6V23.4z M49.3,22.9h14.5c0.7,0,1.2,0.6,1.2,1.2v4.2H49.3V22.9L49.3,22.9z
		 M49.3,7.3H65v4.2c0,0.7-0.6,1.2-1.2,1.2H49.3V7.3L49.3,7.3z"/>
	<path class="st3" d="M53.3,22.9H52v-1.3c0,0,0,0.7,0.3,1C52.6,23,53.3,22.9,53.3,22.9z M53.3,12.7H52V14c0,0,0-0.7,0.3-1
		C52.6,12.7,53.3,12.7,53.3,12.7z"/>
	<path class="st3" d="M48,7.3h4v21.1h-4c-1.4,0-2.5-1.1-2.5-2.5V9.8C45.5,8.4,46.6,7.3,48,7.3z M28.4,7.3h12.8v4.2
		c0,0.7-0.6,1.2-1.2,1.2H28.4V7.3z"/>
	<path class="st3" d="M33.1,12.7h-1.4V14c0,0,0-0.7,0.3-1C32.4,12.7,33.1,12.7,33.1,12.7z"/>
	<path class="st3" d="M27.8,7.3h4v21.1h-6.5V9.8C25.3,8.4,26.4,7.3,27.8,7.3z M13.1,12.7h1.4V14c0,0,0-0.7-0.3-1
		C13.8,12.7,13.1,12.7,13.1,12.7z"/>
	<polygon class="st4" points="12.1,7.3 12.1,12.7 2.3,12.7 	"/>
	<polygon class="st3" points="12.1,7.3 16.4,7.3 16.4,12.7 2.3,12.7 	"/>
	<path class="st3" d="M14.4,7.3h4c1.4,0,2.5,1.1,2.5,2.5v7.8h-6.5V7.3L14.4,7.3z"/>
	<path class="st3" d="M2.6,15.4c-1.4,0-2.5,1.1-2.5,2.5v8.1c0,1.4,1.1,2.5,2.5,2.5h18.3v-13L2.6,15.4L2.6,15.4z M14.4,23.4H7.8
		c-0.7,0-1.2-0.6-1.2-1.2v-1.7c0-0.7,0.6-1.2,1.2-1.2h6.6V23.4z"/>
</g>
<g>
	<path class="st5" d="M208.3,23.1H207v-1.3c0,0,0,0.7,0.3,1C207.6,23.1,208.3,23.1,208.3,23.1z M195.6,7.4h16.1
		c0.7,0,1.2,0.6,1.2,1.2v4.2h-16.1c-0.7,0-1.2-0.6-1.2-1.2L195.6,7.4L195.6,7.4z"/>
	<path class="st5" d="M203.7,23.1h8c0.7,0,1.2,0.6,1.2,1.2v4.2h-9.3L203.7,23.1L203.7,23.1z"/>
	<path class="st5" d="M202.9,0.3h4v28.3h-4c-1.4,0-2.5-1.1-2.5-2.5V2.8C200.5,1.4,201.6,0.3,202.9,0.3z M178.2,23.1h-1.4v-1.3
		c0,0,0,0.7,0.3,1C177.5,23.1,178.2,23.1,178.2,23.1z"/>
	<path class="st5" d="M173.6,23.1h15c0.7,0,1.2,0.6,1.2,1.2v4.2h-16.2V23.1z"/>
	<path class="st5" d="M170.3,18h6.5v10.6h-4c-1.4,0-2.5-1.1-2.5-2.5V18z"/>
	<path class="st5" d="M188.7,7.4h-15.9c-1.4,0-2.5,1.1-2.5,2.5v10.6h18.4c1.4,0,2.5-1.1,2.5-2.5V9.9C191.2,8.5,190.1,7.4,188.7,7.4z
		 M184.7,15.4c0,0.7-0.6,1.2-1.2,1.2h-6.6v-4.2h6.6c0.7,0,1.2,0.6,1.2,1.2V15.4z"/>
	<polygon class="st5" points="145.1,4.1 151.6,0.4 151.6,12.9 145.1,12.9 	"/>
	<path class="st5" d="M163.5,7.4h-18.4v21.2h18.4c1.4,0,2.5-1.1,2.5-2.5V9.9C166,8.5,164.9,7.4,163.5,7.4z M159.5,21.9
		c0,0.7-0.6,1.2-1.2,1.2h-6.6V12.9h6.6c0.7,0,1.2,0.6,1.2,1.2V21.9z"/>
	<path class="st6" d="M138.3,7.4h-15.9c-1.4,0-2.5,1.1-2.5,2.5v10.6h18.4c1.4,0,2.5-1.1,2.5-2.5V9.9C140.8,8.5,139.7,7.4,138.3,7.4z
		 M134.3,15.4c0,0.7-0.6,1.2-1.2,1.2h-6.6v-4.2h6.6c0.7,0,1.2,0.6,1.2,1.2V15.4z M127.8,23.1h-1.4v-1.3c0,0,0,0.7,0.3,1
		C127.1,23.1,127.8,23.1,127.8,23.1z"/>
	<path class="st6" d="M124.6,23.1h13.6c0.7,0,1.2,0.6,1.2,1.2v4.2h-14.8V23.1L124.6,23.1z"/>
	<path class="st6" d="M119.9,18h6.5v10.6h-4c-1.4,0-2.5-1.1-2.5-2.5V18z"/>
	<g>
		<polygon class="st6" points="98,7.4 112.3,7.4 112.3,12.9 98,12.9 		"/>
		<path class="st6" d="M107.7,12.9h1.4v1.3c0,0,0-0.7-0.3-1C108.4,12.8,107.7,12.9,107.7,12.9z"/>
		<path class="st6" d="M109,7.4h4c1.4,0,2.5,1.1,2.5,2.5v18.7H109V7.4z"/>
		<polygon class="st6" points="94.7,7.4 101.2,7.4 101.2,28.6 94.7,28.6 		"/>
	</g>
	<path class="st6" d="M82.5,12.9h1.4v1.3c0,0,0-0.7-0.3-1C83.2,12.8,82.5,12.9,82.5,12.9z"/>
	<path class="st6" d="M70.9,7.4h15.5v5.5H72.1c-0.7,0-1.2-0.6-1.2-1.2V7.4z"/>
	<path class="st6" d="M83.8,7.4h4c1.4,0,2.5,1.1,2.5,2.5V18h-6.5V7.4z"/>
	<path class="st6" d="M72,15.5c-1.4,0-2.5,1.1-2.5,2.5v8.1c0,1.4,1.1,2.5,2.5,2.5h18.4v-13L72,15.5L72,15.5z M83.8,23.6h-6.6
		c-0.7,0-1.2-0.6-1.2-1.2v-1.7c0-0.7,0.6-1.2,1.2-1.2h6.6V23.6z M49.4,23.1h14.5c0.7,0,1.2,0.6,1.2,1.2v4.2H49.4V23.1L49.4,23.1z
		 M49.4,7.4h15.8v4.2c0,0.7-0.6,1.2-1.2,1.2H49.4V7.4L49.4,7.4z"/>
	<path class="st6" d="M53.5,23.1h-1.4v-1.3c0,0,0,0.7,0.3,1C52.8,23.1,53.5,23.1,53.5,23.1z M53.5,12.9h-1.4v1.3c0,0,0-0.7,0.3-1
		C52.8,12.8,53.5,12.9,53.5,12.9z"/>
	<path class="st6" d="M48.1,7.4h4v21.2h-4c-1.4,0-2.5-1.1-2.5-2.5V9.9C45.6,8.5,46.7,7.4,48.1,7.4z M28.4,7.4h12.8v4.2
		c0,0.7-0.6,1.2-1.2,1.2H28.4V7.4z"/>
	<path class="st6" d="M33.2,12.9h-1.4v1.3c0,0,0-0.7,0.3-1C32.5,12.8,33.2,12.9,33.2,12.9z"/>
	<g>
		<path class="st6" d="M27.8,7.4h4v21.2h-6.5V9.9C25.3,8.5,26.4,7.4,27.8,7.4z M13.1,12.9h1.4v1.3c0,0,0-0.7-0.3-1
			C13.8,12.8,13.1,12.9,13.1,12.9z"/>
		<polygon class="st7" points="12.2,7.4 12.2,12.9 2.4,12.9 		"/>
		<polygon class="st6" points="12.2,7.4 16.5,7.4 16.5,12.9 2.4,12.9 		"/>
		<path class="st6" d="M14.5,7.4h4c1.4,0,2.5,1.1,2.5,2.5v7.8h-6.5V7.4L14.5,7.4z"/>
		<path class="st6" d="M2.6,15.5c-1.4,0-2.5,1.1-2.5,2.5v8.1c0,1.4,1.1,2.5,2.5,2.5H21v-13L2.6,15.5L2.6,15.5z M14.5,23.6H7.8
			c-0.7,0-1.2-0.6-1.2-1.2v-1.7c0-0.7,0.6-1.2,1.2-1.2h6.6V23.6z"/>
	</g>
	<g>
		<g>
			<polygon class="st6" points="123.1,37.4 133.7,37.4 133.7,41.5 123.1,41.5 			"/>
			<path class="st6" d="M130.3,41.5h1v1c0,0,0-0.5-0.2-0.7C130.8,41.4,130.3,41.5,130.3,41.5z"/>
			<path class="st6" d="M131.3,37.4h3c1,0,1.8,0.8,1.8,1.8V53h-4.8V37.4z"/>
			<polygon class="st6" points="120.7,37.4 125.5,37.4 125.5,53 120.7,53 			"/>
		</g>
		<path class="st7" d="M109.8,49.2c0,2.7-1.3,3.9-4.2,3.9h-7.7c-2.1,0-4.1-1.1-4.1-3.7c0-0.1,0-0.2,0-0.3c1.6,0,3.1,0,4.7,0h5.9
			c0.6,0,0.7-0.2,0.7-0.7v-0.6c0-0.4-0.2-0.6-0.7-0.6h-6.3c-2.2,0-4.1-0.9-4.1-3.6v-2c0-2.5,1.5-4,4.2-4h7.2c2.2,0,4.1,1.1,4.1,3.7
			c0,0.1,0,0.2,0,0.2c-1.6,0-3.1,0-4.7,0h-5.3c-0.6,0-0.8,0.2-0.8,0.7v0.5c0,0.5,0.2,0.7,0.8,0.7h5.9c3.1,0,4.3,1.5,4.3,3.7V49.2z"
			/>
		<path class="st7" d="M117.2,53.1h-4.8V37.5h3.2c0.9,0,1.5,0.7,1.5,1.5V53.1z"/>
		<path class="st7" d="M155.2,48.9c0,3.1-1.6,4.2-4.5,4.2h-7.7c-2.8,0-4.3-1.2-4.3-4.1v-7.3c0-3,1.4-4.2,4.4-4.2h7.5
			c3.1,0,4.5,1.2,4.5,4.3V48.9z M143.6,48.2c0,0.6,0.1,0.8,0.7,0.8h5.4c0.6,0,0.7-0.2,0.7-0.8v-5.8c0-0.6-0.2-0.8-0.8-0.8h-5.2
			c-0.6,0-0.8,0.2-0.8,0.8V48.2z"/>
		<g>
			<path class="st6" d="M85.5,41.5h1v1c0,0,0-0.5-0.2-0.7C86,41.5,85.5,41.5,85.5,41.5z"/>
			<path class="st6" d="M76.9,37.5h11.4v4H77.8c-0.5,0-0.9-0.4-0.9-0.9V37.5z"/>
			<path class="st6" d="M86.5,37.5h3c1,0,1.8,0.8,1.8,1.8v6h-4.8V37.5z"/>
			<path class="st6" d="M77.7,43.5c-1,0-1.8,0.8-1.8,1.8v5.9c0,1,0.8,1.8,1.8,1.8h13.5v-9.6L77.7,43.5L77.7,43.5z M86.5,49.4h-4.9
				c-0.5,0-0.9-0.4-0.9-0.9v-1.3c0-0.5,0.4-0.9,0.9-0.9h4.9V49.4z M61.1,49h10.7c0.5,0,0.9,0.4,0.9,0.9v3.1H61.1V49L61.1,49z
				 M61.1,37.5h11.6v3.1c0,0.5-0.4,0.9-0.9,0.9H61.1V37.5L61.1,37.5z"/>
			<path class="st6" d="M64.1,49h-1v-1c0,0,0,0.5,0.2,0.7C63.6,49.1,64.1,49,64.1,49z M64.1,41.5h-1v1c0,0,0-0.5,0.2-0.7
				C63.6,41.5,64.1,41.5,64.1,41.5z"/>
			<path class="st6" d="M60.1,37.5h3v15.6h-3c-1,0-1.8-0.8-1.8-1.8V39.3C58.3,38.3,59.1,37.5,60.1,37.5z"/>
		</g>
	</g>
</g>
</svg>
