<?xml version="1.0" encoding="utf-8"?>
<!-- Generator: Adobe Illustrator 24.0.2, SVG Export Plug-In . SVG Version: 6.00 Build 0)  -->
<svg version="1.1" id="Layer_x0020_1" xmlns="http://www.w3.org/2000/svg" xmlns:xlink="http://www.w3.org/1999/xlink" x="0px"
	 y="0px" viewBox="0 0 70.6 30" style="enable-background:new 0 0 70.6 30;" xml:space="preserve">
<style type="text/css">
	.st0{fill:#C1C1C1;}
</style>
<path class="st0" d="M35.9,1.6c0.4,0,0.6,0,1,0h4.1v7.7c0.6-0.4,1-0.5,1.3-0.7c2.9-1.6,6.5,0,6.9,3.3c0.4,2.6,0.5,5,0.5,7.5
	c0.1,2.1,0,4-0.4,6c-0.7,4.1-4.3,5.6-7.8,3.3c-0.1-0.1-0.2-0.2-0.1,0c-0.6,0.4-1.3,0.6-1.9,0.7c-1.1,0.1-2.3,0-3.5,0
	C35.9,20.1,35.9,11,35.9,1.6z M44.6,18.8c-0.1-1.5-0.1-3-0.2-4.5c0-1-0.6-1.6-1.6-1.6c-0.9,0-1.6,0.9-1.6,1.7l0,0c0,2.9,0,5.8,0,8.6
	c0,0.9,0.4,1.7,1.5,1.8c1.1,0,1.6-0.6,1.7-1.6C44.5,21.8,44.6,20.3,44.6,18.8z"/>
<path class="st0" d="M23.2,28.9c-1.9-0.7-2.9-2.2-3.3-4.1c-0.7-4-0.7-8.2,0-12.2c0.5-2.6,2.2-4,4.7-4.4c1.1-0.1,2.3-0.1,3.4,0
	c2.6,0.2,4.1,1.8,4.7,4.1c0.7,2.6,0.7,5.4,0.6,8.2h-8.8c0.1,1.1,0.1,2.2,0.4,3.2c0.1,0.7,0.7,1.3,1.5,1.3c0.7,0.1,1.3-0.5,1.5-1.1
	c0-0.2,0.1-0.5,0.2-0.9h5c0.2,2.7-1.2,5.2-3.3,5.8c-0.1-0.2-0.5-0.4-0.7-0.4c-0.5,0-1,0.1-1.5,0.2l0,0
	C26.2,28.1,24.5,28.1,23.2,28.9z M28.2,16.6c0-0.9,0-1.6,0-2.4s-0.7-1.5-1.5-1.5c-0.7-0.1-1.5,0.5-1.6,1.2c-0.1,0.9-0.2,1.8-0.2,2.7
	H28.2z"/>
<path class="st0" d="M9.1,1.6c3.8-0.6,7.8,1.8,8.4,6.8c0.6,4.6,0.6,9.4,0,14c-0.6,4.6-4,7.3-8.6,6.8v-4.7c2.9-0.6,3-1.7,3.2-3.9
	c0.1-3.3,0-6.5,0-9.6c0-0.5,0-1-0.1-1.5c-0.1-1.8-1-3-2.8-3V1.6z"/>
<path class="st0" d="M60.3,3.3h5.2v5.6h4.1V13h-4.1v8.2c0,2.6,0.1,2.7,2.6,3.7v4.3c-3.9,1-7.3-1.3-7.8-5.2c0-0.6-0.1-1.2-0.1-1.8
	V5.1C60.3,4.5,60.3,3.9,60.3,3.3z"/>
<path class="st0" d="M1.3,9.1h5c0.1,0.5,0.1,1,0.1,1.5v17c0,1.8,0,1.8-1.8,1.8c-1,0-1.8,0-2.8,0c-0.1,0-0.4-0.1-0.5-0.1
	C1.3,22.5,1.3,15.8,1.3,9.1z"/>
<path class="st0" d="M57.4,29.2h-5.1V9.1h5.1V29.2z"/>
<path class="st0" d="M0.5,3.7c0-1.7,1.3-3.2,3-3.2c0.1,0,0.2,0,0.2,0c1.8,0.1,3.2,1.6,3,3.3c0,1.8-1.5,3.3-3.3,3.2
	C1.9,6.8,0.5,5.4,0.5,3.7z"/>
<path class="st0" d="M58.1,3.7c0,1.7-1.3,3.3-3,3.3c-1.8,0.1-3.4-1.3-3.4-3.2l0,0c0-1.8,1.3-3.3,3.2-3.3c0,0,0,0,0.1,0
	c1.7-0.1,3.2,1.2,3.3,2.9C58.1,3.6,58.1,3.6,58.1,3.7z"/>
<path class="st0" d="M27.5,28.6c0.5-0.1,1.1-0.1,1.6-0.2c0.4,0,1.7-0.4,2.1-0.2c-0.2,0.2-1.6,1.1-1.8,1.1c-1.9,0.5-4.6,0.7-6.7-0.6
	C24,27.9,26.2,28,27.5,28.6"/>
<path class="st0" d="M27.5,28.6l-0.1,0.1C27.4,28.7,27.4,28.7,27.5,28.6L27.5,28.6z"/>
</svg>
