<?xml version="1.0" encoding="utf-8"?>
<!-- Generator: Adobe Illustrator 24.0.2, SVG Export Plug-In . SVG Version: 6.00 Build 0)  -->
<svg version="1.1" id="Layer_x0020_1" xmlns="http://www.w3.org/2000/svg" xmlns:xlink="http://www.w3.org/1999/xlink" x="0px"
	 y="0px" viewBox="0 0 72 30" style="enable-background:new 0 0 72 30;" xml:space="preserve">
<style type="text/css">
	.st0{fill:#4D4D4D;}
	.st1{fill-rule:evenodd;clip-rule:evenodd;fill:#FEFEFE;}
	.st2{fill-rule:evenodd;clip-rule:evenodd;fill:#C1C1C1;}
	.st3{fill-rule:evenodd;clip-rule:evenodd;fill:#232323;}
	.st4{fill:#232323;}
	.st5{fill:#FEFEFE;}
</style>
<path id="Rectangle_69" class="st0" d="M27.8,0.8h41.1c1.6,0,2.9,1.3,2.9,2.9v22.5c0,1.6-1.3,2.9-2.9,2.9H27.8
	c-1.6,0-2.9-1.3-2.9-2.9V3.8C24.8,2.1,26.1,0.8,27.8,0.8z"/>
<g id="_218389488">
	<path id="_218389896" class="st1" d="M27,0.3H2.6c-1.4,0-2.5,1.1-2.5,2.5v24.3c0,1.4,1.1,2.5,2.5,2.5H27c1.4,0,2.5-1.1,2.5-2.5V2.8
		C29.5,1.5,28.4,0.3,27,0.3z"/>
	<path id="_218390832" class="st2" d="M26.6,0.8H2.9c-1.3,0-2.3,1-2.3,2.3v23.8c0,1.3,1,2.3,2.3,2.3h23.7c1.3,0,2.3-1,2.3-2.3V3.1
		C28.9,1.8,27.9,0.8,26.6,0.8z"/>
	<path id="_218391192" class="st3" d="M3.4,18.3v-8.1l-1.5,0.3v8.1L3.4,18.3z"/>
	<path id="_218359200" class="st4" d="M5.6,17v-2.5c0-0.3,0.1-0.5,0.2-0.7c0.2-0.3,0.8-0.5,1,0c0.1,0.2,0.1,0.4,0.1,0.5v3.2l1.4-0.3
		v-3.7c0-0.3,0-0.6-0.2-0.8c-0.1-0.2-0.3-0.3-0.5-0.4c-0.2-0.1-0.5-0.1-0.8,0c-0.6,0.1-1,0.5-1.3,1l0,0v-0.6l-1.3,0.3l0,3.7
		c0.2-0.1,0.4-0.1,0.5-0.1C5,16.7,5.3,16.8,5.6,17L5.6,17z"/>
	<path id="_218359080" class="st4" d="M9.3,11.9l-0.7,0.1v1.1L9.3,13c-0.1,1.3,0,2.5,0.1,3.8c0,0.1,0,0.1,0.1,0.2l1.5-0.4
		c0,0,0,0,0,0c-0.2-0.4-0.3-0.8-0.2-1.2l0-2.7l1-0.2v-1l-1,0.2l0-1.1l-1.4,0.3L9.3,11.9L9.3,11.9z"/>
	<path id="_218359152" class="st4" d="M15.9,13.1c0-0.9,0.1-2.3-1.1-2.5c-0.3-0.1-0.6,0-1,0c-0.3,0.1-0.6,0.2-0.9,0.4
		c-0.2,0.1-0.4,0.3-0.6,0.5c-0.2,0.2-0.3,0.4-0.4,0.7c-0.1,0.2-0.1,0.5-0.2,0.7c0,0.3-0.1,0.5-0.1,0.8c0,0.3,0,0.5,0,0.8
		c0,0.5,0.2,0.9,0.5,1.2c0.2,0.1,0.4,0.2,0.6,0.3c0.3,0,0.7,0,1-0.1c0.4-0.1,0.8-0.2,1.1-0.5c0.3-0.2,0.5-0.5,0.6-0.8
		c0.1-0.3,0.2-0.7,0.2-1.1L14.6,14c0.1,0.5-0.2,0.9-0.7,1c-0.7,0.1-0.7-0.7-0.7-1.2L15.9,13.1L15.9,13.1z M13.2,12.9
		c0-0.2,0-0.3,0-0.5c0-0.1,0.1-0.2,0.1-0.4c0.1-0.1,0.1-0.2,0.2-0.3c0.1-0.1,0.2-0.1,0.3-0.2c0.1,0,0.3,0,0.4,0
		c0.2,0.1,0.3,0.4,0.2,0.6c0,0.1,0,0.2,0,0.3L13.2,12.9z"/>
	<path id="_218358960" class="st4" d="M16.5,15.3l1.4-0.3v-2.7c0-0.4,0.1-0.9,0.5-1.2c0.1-0.1,0.3-0.2,0.4-0.2
		c0.2-0.1,0.4-0.1,0.5-0.1c0,0,0,0,0,0v0l0-1.3c-0.4,0-0.8,0.1-1.1,0.5c-0.2,0.2-0.3,0.4-0.4,0.7h0l0-0.7l-1.3,0.3V15.3L16.5,15.3z"
		/>
	<path id="_218358888" class="st4" d="M20.9,10.8v-0.1c0-0.1,0-0.3,0.1-0.4c0-0.1,0.1-0.2,0.2-0.3c0.1-0.1,0.2-0.1,0.3-0.2
		c0.3,0,0.4,0,0.5,0.3c0,0.1,0,0.1,0,0.2c0,0.1,0,0.2-0.1,0.3c0,0.1-0.1,0.2-0.2,0.2c-0.1,0.1-0.2,0.1-0.3,0.2l-0.8,0.3
		c-0.2,0.1-0.4,0.2-0.6,0.3c-0.2,0.1-0.3,0.2-0.4,0.4c-0.1,0.1-0.2,0.3-0.3,0.5c-0.1,0.2-0.1,0.4-0.1,0.7c0,0.2,0,0.3,0.1,0.5
		c0.1,0.1,0.1,0.3,0.2,0.4c0.1,0.1,0.3,0.2,0.4,0.3c0.2,0.1,0.4,0.1,0.6,0c0.2,0,0.4-0.1,0.6-0.2c0.2-0.1,0.3-0.2,0.5-0.3
		c0.1-0.1,0.3-0.3,0.4-0.5h0c0,0.1,0,0.1,0.1,0.2c0,0.1,0.1,0.2,0.1,0.2l1.3-0.3c0-0.1-0.1-0.2-0.1-0.2c0-0.1,0-0.2-0.1-0.3
		c0-0.1,0-0.3,0-0.4l0-2.6c0-0.2,0-0.4-0.1-0.6C23.3,9.3,23.2,9.1,23,9c-0.2-0.1-0.3-0.2-0.5-0.2c-0.3,0-0.7,0-1,0.1
		C21.3,9,21,9,20.8,9.1c-0.2,0.1-0.4,0.2-0.6,0.4c-0.4,0.4-0.6,0.9-0.5,1.4v0.1L20.9,10.8L20.9,10.8z M22.1,12.4
		c0,0.2-0.1,0.4-0.2,0.5c-0.2,0.3-0.6,0.5-0.9,0.3c0,0-0.1-0.1-0.1-0.1c-0.1-0.2,0-0.5,0.1-0.7l0.1-0.1c0.2-0.2,0.4-0.3,0.6-0.4
		c0,0,0.1,0,0.1-0.1c0.1-0.1,0.3-0.2,0.4-0.2L22.1,12.4z"/>
	<path id="_218358936" class="st4" d="M28.1,9.3c0-0.3,0-0.7-0.2-1c-0.1-0.3-0.3-0.5-0.6-0.5c-0.4-0.1-0.7-0.1-1.1,0
		c-0.3,0.1-0.6,0.2-0.9,0.3c-0.3,0.1-0.5,0.4-0.7,0.6c-0.2,0.3-0.4,0.6-0.4,0.9c-0.1,0.4-0.1,0.9-0.1,1.3c0,0.4,0.1,0.8,0.2,1.2
		c0.1,0.3,0.2,0.5,0.4,0.7c0.2,0.2,0.4,0.3,0.6,0.3c0.3,0,0.6,0,0.9-0.1c0.4-0.1,0.8-0.3,1.2-0.5c0.6-0.5,0.9-1.3,0.8-2.1l-1.3,0.3
		c0,0.4,0,0.8-0.3,1.1c-0.1,0-0.2,0.1-0.3,0.1c-0.2,0.1-0.3,0-0.5-0.1c-0.1-0.2-0.2-0.3-0.2-0.5c0-0.3-0.1-0.5-0.1-0.8
		c0-0.3,0-0.5,0-0.8c0-0.2,0.1-0.4,0.1-0.6C25.7,9,26,8.8,26.3,8.7c0.4-0.1,0.5,0.2,0.5,0.5c0,0.1,0,0.2,0,0.3c0,0,0,0.1,0,0.1
		L28.1,9.3z"/>
	<path id="_218372112" class="st4" d="M27.2,5.9L27.2,5.9c0.1,0,0.2,0,0.2,0c0,0,0,0.1,0,0.1c0,0,0,0.1,0,0.1c0,0,0,0-0.1,0.1
		c0,0-0.1,0-0.1,0h-0.1L27.2,5.9z M27,6.8h0.2V6.4h0.1c0,0,0.1,0,0.1,0c0,0,0,0.1,0,0.1l0,0.2c0,0,0,0,0,0.1c0,0,0,0,0,0.1h0.2v0
		c0,0,0,0,0,0c0,0,0,0,0-0.1c0,0,0-0.1,0-0.1c0,0,0-0.1,0-0.1c0,0,0-0.1,0-0.1c0,0,0,0,0-0.1c0,0-0.1,0-0.1,0l0,0c0,0,0.1,0,0.1,0
		c0,0,0-0.1,0.1-0.1c0,0,0-0.1,0-0.1c0-0.1,0-0.1,0-0.1c0,0-0.1-0.1-0.1-0.1c0,0-0.1,0-0.1,0H27L27,6.8L27,6.8z"/>
	<path id="_218370240" class="st3" d="M27.3,5.4c-0.5,0-0.9,0.4-0.9,0.9c0,0.5,0.4,0.9,0.9,0.9c0.5,0,0.9-0.4,0.9-0.9c0,0,0,0,0,0
		C28.2,5.8,27.8,5.4,27.3,5.4L27.3,5.4z M27.3,5.5c-0.4,0-0.8,0.3-0.8,0.8c0,0.4,0.3,0.8,0.8,0.8C27.7,7,28,6.7,28,6.3c0,0,0,0,0,0
		C28,5.9,27.7,5.5,27.3,5.5z"/>
	<path id="_218370552" class="st3" d="M8.8,28.1H6.1c0,0-0.1,0-0.1,0c-0.4,0-0.7-0.1-1-0.3c-1.1-0.5-1.2-1.6-1.2-2.7V18
		c0-0.5,0.4-0.9,0.9-0.9c0.5,0,0.9,0.4,0.9,0.9c0,1.3-0.1,3.3,0,4.3c0,0.1,0.1,0.2,0.2,0.2c0,0,0,0,0,0c0.1,0,0.2-0.1,0.2-0.2
		c0,0,0,0,0,0c0.1-0.7,0-2.7,0-3.6c0.7,0.5,1.4,1,2.2,1.4c0.5,0.3,0.8,0.8,0.7,1.4C8.8,21.7,8.8,28.1,8.8,28.1z"/>
	<path id="_218370696" class="st3" d="M3.4,18.8l-1.7,0.4l-0.1,0c-0.1,0-0.1,0.1-0.1,0.1c-0.1,0.3,0,0.7,0.2,1
		c0.2,0.2,0.5,0.2,0.7,0.1l1-0.2L3.4,18.8L3.4,18.8z"/>
	<path id="_218371056" class="st3" d="M3.4,20.7l-1.7,0.4l-0.1,0c-0.1,0-0.1,0.1-0.1,0.1c-0.1,0.3,0,0.7,0.2,1
		c0.2,0.2,0.5,0.2,0.7,0.1l1-0.2L3.4,20.7z"/>
	<path id="_218371080" class="st3" d="M3.4,22.5l-1.7,0.4l-0.1,0c-0.1,0-0.1,0.1-0.1,0.1c-0.1,0.3,0,0.7,0.2,1
		c0.2,0.2,0.5,0.2,0.7,0.1l1-0.2L3.4,22.5z"/>
</g>
<path id="Path_54" class="st5" d="M38.9,13.8c0,0.4,0,0.8,0,1.1c0,0.3,0.1,0.7,0.2,1c0.1,0.3,0.2,0.5,0.4,0.7
	c0.2,0.2,0.4,0.4,0.7,0.5c0.7,0.2,1.4,0.2,2.1,0c0.3-0.1,0.5-0.3,0.7-0.5c0.2-0.2,0.3-0.5,0.4-0.7c0.1-0.3,0.2-0.6,0.2-1
	c0-0.4,0-0.7,0-1.1c0-0.4,0-0.8,0-1.2c0-0.3-0.1-0.7-0.2-1c-0.1-0.3-0.2-0.5-0.4-0.7c-0.2-0.2-0.4-0.4-0.7-0.5
	c-0.7-0.2-1.4-0.2-2.1,0c-0.3,0.1-0.5,0.3-0.7,0.5c-0.2,0.2-0.3,0.5-0.4,0.7C39,12,39,12.3,39,12.7C38.9,13.1,38.9,13.4,38.9,13.8
	L38.9,13.8z M40.3,13.8c0-0.4,0-0.8,0-1.2c0-0.3,0.1-0.5,0.1-0.8c0-0.2,0.1-0.3,0.3-0.4c0.3-0.2,0.7-0.2,1,0
	c0.1,0.1,0.2,0.3,0.3,0.4c0.1,0.3,0.1,0.5,0.1,0.8c0,0.3,0,0.7,0,1.2s0,0.8,0,1.2c0,0.3-0.1,0.5-0.1,0.8c0,0.2-0.1,0.3-0.3,0.4
	c-0.3,0.2-0.7,0.2-1,0c-0.1-0.1-0.2-0.3-0.3-0.4c-0.1-0.3-0.1-0.5-0.1-0.8C40.3,14.7,40.3,14.3,40.3,13.8L40.3,13.8z M44.4,17.2h1.3
	v-3.4c0-0.2,0-0.4,0.2-0.6C46,13,46.2,13,46.4,13c0.2,0,0.3,0,0.4,0.2c0.1,0.2,0.2,0.4,0.1,0.5v3.5h1.3v-3.8c0-0.3,0-0.6-0.2-0.8
	c-0.1-0.2-0.3-0.4-0.5-0.5C47.5,12,47.2,12,47,12c-0.3,0-0.5,0.1-0.8,0.2c-0.2,0.1-0.4,0.3-0.6,0.6h0v-0.6h-1.3L44.4,17.2L44.4,17.2
	z M49.2,17.2h1.3v-6.7h-1.3V17.2z M51.5,17.2h1.3v-5.1h-1.3V17.2z M51.5,11.5h1.3v-1.1h-1.3V11.5z M53.8,17.2h1.3v-3.4
	c0-0.2,0-0.4,0.2-0.6c0.1-0.1,0.3-0.2,0.5-0.2c0.2,0,0.3,0,0.4,0.2c0.1,0.2,0.2,0.4,0.1,0.5v3.5h1.3v-3.8c0-0.3,0-0.6-0.2-0.8
	c-0.1-0.2-0.3-0.4-0.5-0.5C56.9,12,56.6,12,56.4,12c-0.3,0-0.5,0.1-0.8,0.2c-0.2,0.1-0.4,0.3-0.6,0.6h0v-0.6h-1.3L53.8,17.2
	L53.8,17.2z M62.4,14.9v-0.3c0-0.4,0-0.7-0.1-1.1c0-0.3-0.1-0.6-0.3-0.8c-0.1-0.2-0.3-0.4-0.6-0.5C61.1,12,60.8,12,60.5,12
	c-0.3,0-0.6,0-0.9,0.1c-0.2,0.1-0.4,0.2-0.6,0.4c-0.2,0.2-0.3,0.4-0.4,0.6c-0.1,0.2-0.1,0.5-0.2,0.7c0,0.3,0,0.5,0,0.8
	c0,0.3,0,0.5,0,0.8c0,0.2,0.1,0.5,0.1,0.7c0.1,0.2,0.2,0.4,0.3,0.6c0.2,0.2,0.4,0.3,0.6,0.4c0.3,0.1,0.6,0.2,0.9,0.2
	c0.4,0,0.7-0.1,1-0.2c0.3-0.1,0.5-0.4,0.6-0.6c0.1-0.3,0.2-0.7,0.2-1h-1.2c0,0.2-0.1,0.4-0.1,0.5c0,0.1-0.1,0.2-0.2,0.3
	c-0.1,0.1-0.2,0.1-0.4,0.1c-0.1,0-0.2,0-0.3-0.1c-0.1-0.1-0.2-0.2-0.2-0.3c-0.1-0.1-0.1-0.2-0.1-0.4c0-0.1,0-0.3,0-0.4v-0.4
	L62.4,14.9L62.4,14.9z M59.7,14.1v-0.2c0-0.1,0-0.2,0-0.4c0-0.1,0.1-0.2,0.1-0.3c0-0.1,0.1-0.2,0.2-0.2c0.1-0.1,0.2-0.1,0.3-0.1
	c0.2,0,0.3,0,0.4,0.1c0.1,0.1,0.2,0.3,0.2,0.4c0,0.2,0.1,0.4,0.1,0.7L59.7,14.1L59.7,14.1z"/>
</svg>
