<?xml version="1.0" encoding="utf-8"?>
<!-- Generator: Adobe Illustrator 24.0.2, SVG Export Plug-In . SVG Version: 6.00 Build 0)  -->
<svg version="1.1" id="Layer_x0020_1" xmlns="http://www.w3.org/2000/svg" xmlns:xlink="http://www.w3.org/1999/xlink" x="0px"
	 y="0px" viewBox="0 0 72.3 30" style="enable-background:new 0 0 72.3 30;" xml:space="preserve">
<style type="text/css">
	.st0{fill:none;}
	.st1{fill-rule:evenodd;clip-rule:evenodd;fill:#C1C1C1;}
	.st2{fill-rule:evenodd;clip-rule:evenodd;fill:#232323;}
	.st3{fill:#232323;}
	.st4{fill:#C1C1C1;}
</style>
<g id="Layer_x0020_1_1_">
	<path class="st0" d="M27.4,0.8h42C70.9,0.8,72,2,72,3.4v23.4c0,1.4-1.1,2.5-2.5,2.5h-42c-1.4,0-2.5-1.1-2.5-2.5V3.4
		C24.9,2,26,0.8,27.4,0.8z"/>
	<g id="_218373600">
		<path id="_218385672" class="st1" d="M27.1,0.3H2.7c-1.4,0-2.5,1.1-2.5,2.5v24.4c0,1.4,1.1,2.5,2.5,2.5h24.4
			c1.4,0,2.5-1.1,2.5-2.5V2.9C29.6,1.5,28.5,0.3,27.1,0.3z"/>
		<path id="_218385384" class="st1" d="M26.7,0.8H2.9c-1.3,0-2.3,1-2.3,2.3V27c0,1.3,1,2.3,2.3,2.3h23.8c1.3,0,2.3-1,2.3-2.3V3.1
			C29,1.9,28,0.8,26.7,0.8z"/>
		<polygon id="_218385000" class="st2" points="3.4,18.4 3.4,10.3 1.9,10.6 1.9,18.7 		"/>
		<path id="_218384856" class="st3" d="M5.6,17.1v-2.5c0-0.2,0.1-0.5,0.2-0.7c0.2-0.3,0.8-0.5,1,0c0.1,0.2,0.1,0.3,0.1,0.5v0.1l0,3
			l1.4-0.3v-3.7c0-0.3-0.1-0.6-0.2-0.8c-0.1-0.2-0.3-0.3-0.5-0.4c-0.2-0.1-0.5-0.1-0.8,0c-0.5,0.1-1,0.5-1.3,1l0,0l0-0.6l-1.3,0.3
			l0,3.7c0.2-0.1,0.3-0.1,0.5-0.1l0,0C5,16.7,5.4,16.9,5.6,17.1L5.6,17.1z"/>
		<path id="_218384688" class="st3" d="M9.3,12l-0.7,0.1v1.1L9.3,13c0,1.2-0.1,2.7,0.1,3.8c0,0.1,0,0.1,0.1,0.2l1.5-0.4c0,0,0,0,0,0
			c-0.2-0.4-0.2-0.8-0.2-1.2l0-2.7l1-0.2v-1l-1,0.2l0-1.1l-1.4,0.3L9.3,12L9.3,12z"/>
		<path id="_218384136" class="st3" d="M16,13.2c0-0.9,0.1-2.3-1.1-2.5c-0.3,0-0.6-0.1-1,0c-0.4,0.1-0.7,0.2-0.9,0.4
			c-0.3,0.2-0.4,0.3-0.6,0.5c-0.2,0.2-0.3,0.4-0.4,0.7c-0.1,0.2-0.1,0.5-0.2,0.8c0,0.3-0.1,0.5-0.1,0.8c0,0.3,0,0.5,0,0.8
			c0,0.4,0.2,1,0.5,1.2c0.2,0.1,0.3,0.2,0.6,0.3c0.3,0.1,0.6,0,1-0.1c0.4-0.1,0.8-0.3,1.1-0.5c0.3-0.2,0.5-0.5,0.6-0.8
			c0.1-0.3,0.2-0.7,0.2-1.1l-1.3,0.3c0.1,0.3-0.1,0.9-0.7,1c-0.7,0.1-0.7-0.7-0.7-1.2L16,13.2L16,13.2z M13.3,13c0-0.2,0-0.3,0-0.5
			c0-0.1,0.1-0.2,0.1-0.4c0.1-0.1,0.1-0.2,0.2-0.3c0.1-0.1,0.2-0.1,0.3-0.2c0.2,0,0.3,0,0.4,0c0.2,0.1,0.2,0.4,0.2,0.6
			c0,0.1,0,0.2,0,0.3L13.3,13L13.3,13z"/>
		<path id="_218384760" class="st3" d="M16.5,15.3l1.4-0.3v-2.7c0-0.5,0.1-0.9,0.5-1.2c0.1-0.1,0.3-0.2,0.4-0.2
			c0.2-0.1,0.3-0.1,0.5-0.1c0,0,0,0,0,0l0,0l0-1.3c-0.4,0-0.8,0.1-1.1,0.5c-0.2,0.2-0.3,0.4-0.4,0.7l0,0l0-0.7l-1.3,0.3L16.5,15.3
			L16.5,15.3z"/>
		<path id="_218384352" class="st3" d="M21,10.8v-0.1c0-0.1,0-0.3,0.1-0.4c0-0.1,0.1-0.2,0.2-0.3c0.1-0.1,0.2-0.1,0.3-0.2
			c0.3,0,0.4,0,0.5,0.3c0,0,0,0.1,0,0.2c0,0.1,0,0.2-0.1,0.3c0,0.1-0.1,0.2-0.2,0.2c-0.1,0.1-0.1,0.1-0.3,0.2l-0.8,0.3
			c-0.2,0.1-0.5,0.2-0.6,0.3c-0.2,0.1-0.3,0.3-0.4,0.4c-0.1,0.1-0.2,0.3-0.3,0.5c-0.1,0.2-0.1,0.4-0.1,0.7c0,0.2,0,0.3,0.1,0.5
			c0,0.2,0.1,0.3,0.2,0.4c0.1,0.1,0.2,0.2,0.4,0.3c0.2,0,0.4,0.1,0.7,0c0.2,0,0.4-0.1,0.6-0.2c0.2-0.1,0.3-0.2,0.5-0.3
			c0.1-0.1,0.3-0.3,0.4-0.5l0,0c0,0.1,0,0.1,0.1,0.2c0,0.1,0.1,0.2,0.1,0.2l1.3-0.3c0-0.1-0.1-0.1-0.1-0.2c0-0.1,0-0.2-0.1-0.3
			c0-0.1,0-0.3,0-0.4l0-2.6c0-0.2-0.1-0.4-0.1-0.6c-0.1-0.2-0.2-0.3-0.3-0.4c-0.1-0.1-0.3-0.2-0.5-0.2c-0.3,0-0.6,0-1,0.1
			c-0.3,0.1-0.5,0.2-0.8,0.3c-0.2,0.1-0.4,0.3-0.6,0.4c-0.2,0.2-0.3,0.4-0.4,0.6c-0.1,0.2-0.1,0.5-0.1,0.8v0.1L21,10.8L21,10.8z
			 M22.1,12.4c0,0.1-0.1,0.3-0.1,0.4c0,0.1-0.1,0.1-0.1,0.2c-0.2,0.3-0.6,0.5-0.9,0.3c0,0-0.1-0.1-0.1-0.1c-0.1-0.2,0-0.5,0.1-0.7
			c0,0,0-0.1,0.1-0.1c0.2-0.2,0.4-0.3,0.6-0.4c0,0,0.1,0,0.1-0.1c0.2-0.1,0.4-0.2,0.4-0.2L22.1,12.4L22.1,12.4z"/>
		<path id="_218383368" class="st3" d="M28.2,9.4c0-0.4,0-0.8-0.2-1c-0.1-0.3-0.3-0.4-0.6-0.5c-0.3-0.1-0.7-0.1-1.1,0
			C26,7.9,25.7,8,25.4,8.1c-0.3,0.1-0.5,0.4-0.7,0.6c-0.2,0.2-0.3,0.6-0.4,0.9c-0.1,0.4-0.1,0.8-0.1,1.3c0,0.5,0.1,0.9,0.2,1.2
			c0.1,0.3,0.2,0.6,0.4,0.7c0.2,0.2,0.4,0.3,0.6,0.3c0.3,0,0.6,0,0.9-0.1c0.5-0.1,0.9-0.3,1.2-0.5c0.7-0.6,0.8-1.3,0.8-2.1l-1.3,0.3
			c0,0.4,0,0.8-0.3,1.1c-0.1,0.1-0.2,0.1-0.3,0.1c-0.2,0-0.4,0-0.5-0.1c-0.1-0.1-0.2-0.3-0.2-0.5c0-0.3,0-0.4-0.1-0.8
			c0-0.3,0-0.6,0-0.8c0-0.2,0.1-0.4,0.1-0.6c0.1-0.3,0.3-0.5,0.6-0.6c0.4-0.1,0.5,0.2,0.5,0.5c0,0.1,0,0.3,0,0.3c0,0,0,0.1,0,0.1
			L28.2,9.4L28.2,9.4z"/>
		<path id="_218383608" class="st3" d="M27.3,5.9L27.3,5.9c0.1,0,0.2,0,0.2,0c0,0,0,0.1,0,0.1c0,0,0,0.1,0,0.1c0,0,0,0-0.1,0.1
			c0,0,0,0-0.1,0h-0.1L27.3,5.9L27.3,5.9z M27.1,6.8h0.2V6.4h0.1c0,0,0.1,0,0.1,0c0,0,0,0.1,0,0.1l0,0.2c0,0,0,0,0,0.1
			c0,0,0,0,0,0.1h0.2v0c0,0,0,0,0,0c0,0,0,0,0-0.1c0,0,0-0.1,0-0.1c0-0.1,0-0.1,0-0.1c0,0,0-0.1,0-0.1c0,0,0,0,0-0.1c0,0,0,0-0.1,0
			v0c0,0,0.1,0,0.1,0c0,0,0-0.1,0.1-0.1c0,0,0-0.1,0-0.1c0-0.1,0-0.1,0-0.2c0,0-0.1-0.1-0.1-0.1c0,0-0.1,0-0.1,0h-0.4L27.1,6.8
			L27.1,6.8z"/>
		<path id="_218383056" class="st2" d="M27.4,5.4c-0.5,0-0.9,0.4-0.9,0.9c0,0.5,0.4,0.9,0.9,0.9c0.5,0,0.9-0.4,0.9-0.9
			C28.2,5.8,27.9,5.4,27.4,5.4z M27.4,5.5c-0.4,0-0.8,0.3-0.8,0.8c0,0.4,0.3,0.8,0.8,0.8s0.8-0.3,0.8-0.8
			C28.1,5.9,27.8,5.5,27.4,5.5z"/>
		<path id="_218382240" class="st2" d="M8.8,28.2H6.1c0,0-0.1,0-0.1,0c-0.3,0-0.7-0.1-1-0.3c-1.1-0.5-1.2-1.6-1.2-2.7v-0.7v-6.4
			c0-0.5,0.4-0.9,0.9-0.9l0,0c0.5,0,0.9,0.4,0.9,0.9c0,1.3-0.1,3.3,0,4.4c0,0.2,0.1,0.2,0.2,0.2c0.1,0,0.2-0.1,0.2-0.2
			c0.1-0.7,0-2.7,0-3.6c0.7,0.5,1.4,1,2.2,1.5c0.5,0.3,0.7,0.5,0.7,1.4L8.8,28.2L8.8,28.2z"/>
		<path id="_218374440" class="st2" d="M3.4,18.8l-1.7,0.4l-0.1,0c-0.1,0-0.1,0.1-0.1,0.1c-0.1,0.3,0,0.8,0.2,1
			c0.2,0.1,0.4,0.2,0.7,0.1l1-0.2L3.4,18.8L3.4,18.8z"/>
		<path id="_218373768" class="st2" d="M3.4,20.7l-1.7,0.4l-0.1,0c-0.1,0-0.1,0.1-0.1,0.1c-0.1,0.3,0,0.8,0.2,1
			c0.2,0.1,0.4,0.2,0.7,0.1l1-0.2L3.4,20.7L3.4,20.7z"/>
		<path id="_218373816" class="st2" d="M3.4,22.6L1.7,23l-0.1,0c-0.1,0-0.1,0.1-0.1,0.1c-0.1,0.3,0,0.8,0.2,1
			c0.2,0.1,0.4,0.2,0.7,0.1l1-0.2L3.4,22.6L3.4,22.6z"/>
	</g>
	<path class="st4" d="M35.9,14.9v-0.3c0-0.4,0-0.7-0.1-1.1c-0.1-0.3-0.1-0.6-0.3-0.8c-0.1-0.2-0.3-0.4-0.6-0.5
		c-0.2-0.1-0.6-0.2-0.9-0.2c-0.4,0-0.6,0-0.9,0.1c-0.2,0.1-0.4,0.2-0.6,0.4c-0.2,0.2-0.3,0.4-0.3,0.6c-0.1,0.2-0.1,0.5-0.2,0.7
		c0,0.3,0,0.5,0,0.8c0,0.3,0,0.5,0,0.8c0,0.3,0.1,0.5,0.1,0.7c0.1,0.2,0.2,0.4,0.3,0.6c0.1,0.2,0.3,0.3,0.6,0.4
		c0.2,0.1,0.6,0.2,0.9,0.2c0.4,0,0.7-0.1,1-0.2c0.3-0.1,0.5-0.4,0.6-0.6c0.1-0.3,0.2-0.6,0.2-1h-1.2c0,0.2-0.1,0.4-0.1,0.5
		c-0.1,0.1-0.1,0.2-0.2,0.3c-0.1,0.1-0.2,0.1-0.4,0.1c-0.1,0-0.2,0-0.3-0.1c-0.1-0.1-0.1-0.2-0.2-0.3c0-0.1-0.1-0.2-0.1-0.4
		c0-0.1,0-0.3,0-0.4v-0.4L35.9,14.9L35.9,14.9z M33.4,14.1v-0.2c0-0.1,0-0.2,0-0.4c0-0.1,0.1-0.2,0.1-0.3c0.1-0.1,0.1-0.2,0.2-0.2
		c0.1-0.1,0.2-0.1,0.3-0.1c0.2,0,0.3,0,0.4,0.1c0.1,0.1,0.2,0.2,0.2,0.4c0,0.2,0.1,0.4,0.1,0.7H33.4z"/>
	<polygon class="st4" points="36.9,14.1 36.9,15 39.6,15 39.6,14.1 	"/>
	<path class="st4" d="M39.8,10.6v1.1h1.5v5.5h1.3v-5.5H44v-1.1H39.8L39.8,10.6z M43.9,17.2h1.3v-3c0-0.2,0-0.3,0.1-0.4
		c0.1-0.1,0.1-0.2,0.2-0.3c0.1-0.1,0.2-0.1,0.3-0.2c0.1,0,0.2,0,0.3,0c0.1,0,0.1,0,0.2,0c0.1,0,0.1,0,0.2,0v-1.2c0,0-0.1,0-0.1,0
		c0,0-0.1,0-0.1,0c-0.2,0-0.3,0-0.5,0.1c-0.1,0.1-0.3,0.2-0.4,0.3c-0.1,0.1-0.2,0.3-0.3,0.4h0v-0.7h-1.2V17.2L43.9,17.2z M48.1,13.8
		v-0.1c0-0.1,0-0.2,0.1-0.3c0-0.1,0.1-0.2,0.2-0.2c0.1-0.1,0.2-0.1,0.3-0.1c0.2,0,0.4,0.1,0.5,0.2c0.1,0.1,0.1,0.3,0.1,0.4
		c0,0.1,0,0.2,0,0.3c0,0.1-0.1,0.1-0.2,0.2c-0.1,0-0.2,0.1-0.3,0.1l-0.7,0.2c-0.2,0.1-0.4,0.1-0.6,0.2c-0.2,0.1-0.3,0.2-0.4,0.3
		C47,15,47,15.1,46.9,15.3c0,0.2-0.1,0.4-0.1,0.6c0,0.2,0,0.3,0.1,0.5c0,0.2,0.1,0.3,0.2,0.5c0.1,0.1,0.2,0.2,0.4,0.3
		c0.2,0.1,0.3,0.1,0.6,0.1c0.2,0,0.4,0,0.5-0.1c0.2,0,0.3-0.1,0.4-0.2c0.1-0.1,0.2-0.2,0.3-0.4h0c0,0.1,0,0.2,0.1,0.3
		c0,0.1,0.1,0.2,0.1,0.3h1.2c0-0.1-0.1-0.2-0.1-0.3c0-0.1,0-0.2,0-0.3c0-0.1,0-0.2,0-0.4v-2.6c0-0.2,0-0.4-0.1-0.6
		c0-0.2-0.1-0.3-0.3-0.5c-0.1-0.1-0.3-0.2-0.6-0.3c-0.2-0.1-0.5-0.1-0.9-0.1c-0.2,0-0.5,0-0.7,0.1c-0.2,0.1-0.4,0.1-0.6,0.3
		c-0.2,0.1-0.3,0.3-0.4,0.5C47,13.1,47,13.4,47,13.6v0.1L48.1,13.8L48.1,13.8z M49.3,15.7c0,0.1,0,0.3-0.1,0.4
		c0,0.1-0.1,0.2-0.2,0.2c-0.1,0.1-0.2,0.1-0.3,0.1c-0.1,0-0.2,0-0.3,0c-0.1,0-0.2,0-0.3-0.1c-0.1-0.1-0.1-0.1-0.2-0.3
		c0-0.1,0-0.2,0-0.3c0-0.2,0.1-0.4,0.2-0.5c0.1-0.1,0.3-0.2,0.6-0.3c0.1,0,0.2,0,0.3-0.1c0.1,0,0.2-0.1,0.3-0.2L49.3,15.7L49.3,15.7
		z M51.5,17.2h1.3v-3.3c0-0.3,0.1-0.5,0.2-0.6c0.1-0.1,0.3-0.2,0.5-0.2c0.2,0,0.3,0.1,0.4,0.2c0.1,0.1,0.1,0.3,0.1,0.5v3.4h1.3v-3.7
		c0-0.3-0.1-0.6-0.2-0.8c-0.1-0.2-0.2-0.4-0.4-0.5c-0.2-0.1-0.4-0.1-0.7-0.1c-0.3,0-0.5,0.1-0.7,0.2c-0.2,0.1-0.4,0.3-0.5,0.5h0
		v-0.6h-1.2V17.2L51.5,17.2z M55.9,15.6v0.2c0,0.2,0,0.5,0.1,0.6c0.1,0.2,0.2,0.4,0.3,0.5c0.1,0.1,0.3,0.2,0.6,0.3
		c0.2,0.1,0.5,0.1,0.9,0.1c0.3,0,0.5,0,0.7-0.1c0.2-0.1,0.4-0.2,0.6-0.3c0.2-0.1,0.3-0.3,0.4-0.5c0.1-0.2,0.1-0.4,0.1-0.7
		c0-0.2,0-0.5-0.1-0.6c-0.1-0.2-0.2-0.3-0.4-0.5c-0.2-0.1-0.4-0.2-0.6-0.3l-0.8-0.3c-0.1,0-0.3-0.1-0.3-0.2
		c-0.1-0.1-0.1-0.1-0.2-0.2c0-0.1-0.1-0.1,0-0.2c0-0.1,0-0.2,0.1-0.3c0.1-0.1,0.1-0.1,0.2-0.2c0.1,0,0.2-0.1,0.3-0.1
		c0.2,0,0.4,0.1,0.4,0.2c0.1,0.1,0.1,0.3,0.1,0.6h1.2v-0.2c0-0.3-0.1-0.6-0.2-0.8c-0.1-0.2-0.3-0.4-0.6-0.5c-0.3-0.1-0.6-0.2-1-0.2
		c-0.3,0-0.6,0-0.8,0.1c-0.2,0.1-0.4,0.2-0.6,0.3c-0.1,0.1-0.3,0.3-0.3,0.5C56,13.2,56,13.4,56,13.6c0,0.3,0.1,0.6,0.3,0.9
		c0.2,0.2,0.4,0.4,0.8,0.5l0.9,0.3c0.1,0,0.2,0.1,0.2,0.1c0.1,0,0.1,0.1,0.2,0.2c0,0.1,0.1,0.2,0.1,0.3c0,0.1,0,0.2-0.1,0.3
		c-0.1,0.1-0.1,0.2-0.2,0.2c-0.1,0-0.2,0.1-0.3,0.1c-0.1,0-0.3,0-0.4-0.1c-0.1-0.1-0.2-0.1-0.2-0.2c0-0.1-0.1-0.2-0.1-0.4v-0.2
		L55.9,15.6L55.9,15.6z M60.5,17.2h1.3v-4.1h0.7v-0.9h-0.7v-0.4c0-0.1,0-0.2,0.1-0.3c0.1-0.1,0.2-0.1,0.4-0.1c0,0,0.1,0,0.1,0
		c0,0,0.1,0,0.1,0v-0.9c-0.1,0-0.2,0-0.3,0c-0.1,0-0.2,0-0.3,0c-0.3,0-0.5,0-0.7,0.1c-0.2,0.1-0.4,0.2-0.5,0.4
		c-0.1,0.2-0.2,0.4-0.2,0.7v0.6h-0.7v0.9h0.7L60.5,17.2L60.5,17.2z M66.7,14.9v-0.3c0-0.4,0-0.7-0.1-1c-0.1-0.3-0.1-0.6-0.3-0.8
		c-0.1-0.2-0.3-0.4-0.6-0.5c-0.2-0.1-0.5-0.2-0.9-0.2c-0.3,0-0.6,0-0.9,0.1c-0.2,0.1-0.4,0.2-0.6,0.4c-0.1,0.2-0.3,0.4-0.3,0.6
		c-0.1,0.2-0.1,0.4-0.2,0.7c0,0.3,0,0.5,0,0.8c0,0.2,0,0.5,0,0.7c0,0.3,0.1,0.5,0.1,0.7c0.1,0.2,0.2,0.4,0.3,0.6
		c0.1,0.2,0.3,0.3,0.6,0.4c0.2,0.1,0.5,0.2,0.9,0.2c0.4,0,0.7-0.1,1-0.2c0.3-0.1,0.5-0.3,0.6-0.6c0.1-0.3,0.2-0.6,0.2-1h-1.2
		c0,0.2-0.1,0.4-0.1,0.5c-0.1,0.1-0.1,0.2-0.2,0.3c-0.1,0.1-0.2,0.1-0.4,0.1c-0.1,0-0.2,0-0.3-0.1c-0.1-0.1-0.1-0.2-0.2-0.3
		c0-0.1-0.1-0.2-0.1-0.4c0-0.1,0-0.3,0-0.4v-0.4L66.7,14.9L66.7,14.9z M64.1,14.2V14c0-0.1,0-0.2,0-0.3c0-0.1,0.1-0.2,0.1-0.3
		c0.1-0.1,0.1-0.2,0.2-0.2c0.1-0.1,0.2-0.1,0.3-0.1c0.2,0,0.3,0,0.4,0.1c0.1,0.1,0.2,0.2,0.2,0.4c0,0.2,0.1,0.4,0.1,0.6L64.1,14.2
		L64.1,14.2z M67.3,17.2h1.3v-3c0-0.2,0-0.3,0.1-0.4c0.1-0.1,0.1-0.2,0.2-0.3c0.1-0.1,0.2-0.1,0.3-0.2c0.1,0,0.2,0,0.3,0
		c0.1,0,0.1,0,0.2,0c0.1,0,0.1,0,0.2,0v-1.2c0,0-0.1,0-0.1,0c0,0-0.1,0-0.1,0c-0.2,0-0.3,0-0.5,0.1c-0.1,0.1-0.3,0.2-0.4,0.3
		c-0.1,0.1-0.2,0.3-0.3,0.4h0v-0.7h-1.2L67.3,17.2L67.3,17.2z"/>
</g>
</svg>
