<?xml version="1.0" encoding="utf-8"?>
<!-- Generator: Adobe Illustrator 24.0.0, SVG Export Plug-In . SVG Version: 6.00 Build 0)  -->
<svg version="1.1" id="Layer_1" xmlns="http://www.w3.org/2000/svg" xmlns:xlink="http://www.w3.org/1999/xlink" x="0px" y="0px"
	 viewBox="0 0 122.7 36" style="enable-background:new 0 0 122.7 36;" xml:space="preserve">
<style type="text/css">
	.st0{fill:#C1C1C1;}
</style>
<g>
	<path class="st0" d="M8.5,26.2c-0.6,0-1.1-0.3-1.4-0.8L0.2,13.4c-0.4-0.8-0.2-1.8,0.6-2.3c0.8-0.4,1.8-0.2,2.3,0.6L10,23.6
		c0.4,0.8,0.2,1.8-0.6,2.3C9.1,26.1,8.9,26.2,8.5,26.2z"/>
	<path class="st0" d="M25.9,19.7c0-0.9-0.3-1.7-0.8-2.5c-0.7-1.4-1.6-2.2-2.8-2.8c-1-0.5-2.1-0.7-3.2-0.6c0.4-0.8,0.6-1.6,0.7-2.5
		c0.1-1.2-0.3-2.3-1-3.7c-0.5-0.9-1.1-1.5-1.8-2c-0.7-0.4-1.5-0.7-2.3-0.8c-0.9-0.1-1.7,0-2.7,0.2c-0.3,0.1-0.6,0.2-0.9,0.2
		c-0.1,0.1-0.2,0.1-0.4,0.2c-0.6,0.2-2,1-2.5,1.3L5.8,8.1H5.8c-0.9,0.6-1.2,1.7-0.7,2.6c0.4,0.6,1,0.9,1.6,0.9
		c0.3,0,0.6-0.1,0.9-0.2h0.1l3.9-2.2c0.4-0.2,0.7-0.3,1.1-0.4c0.4-0.1,0.7,0,1.1,0.1c0.4,0.1,0.7,0.3,1,0.6c0.3,0.2,0.6,0.6,0.8,0.9
		c0.2,0.4,0.4,0.7,0.4,1.2c0.1,0.4,0.1,0.8,0,1.2s-0.2,0.7-0.4,1c-0.2,0.3-0.5,0.6-0.8,0.7l-2.3,1.4l-1,0.6l-0.6,0.4
		c-0.9,0.5-1.1,1.5-0.6,2.4c0.3,0.6,0.9,0.9,1.5,0.9c0.3,0,0.6-0.1,0.9-0.2l1.3-0.7l3.3-1.8c0.4-0.2,0.7-0.3,1-0.3
		c0.4,0,0.7,0.1,1,0.2c0.4,0.1,0.7,0.3,1,0.6c0.3,0.2,0.6,0.6,0.8,0.9c0.2,0.4,0.3,0.7,0.4,1.1c0.1,0.4,0.1,0.8-0.1,1.2
		c-0.1,0.4-0.2,0.7-0.5,1c-0.2,0.3-0.6,0.6-0.9,0.8L14.3,26L14,26l-1,0.6l-2,1.1c-0.9,0.5-1.2,1.6-0.7,2.5c0.3,0.6,0.9,1,1.6,1
		c0.3,0,0.6-0.1,0.9-0.2l4.9-2.7l4-2.2c0.9-0.5,1.7-1.1,2.3-1.8c0.7-0.7,1.2-1.4,1.5-2.2C25.8,21.3,26,20.5,25.9,19.7z"/>
	<g>
		<path class="st0" d="M77,22.9c-0.4,0-0.8,0-1.1-0.3s-0.3-0.7-0.3-1.1v-9.3c0-0.4,0-0.8,0.3-1.1c0.3-0.3,0.7-0.3,1.1-0.3h3.5
			c2.4,0,3.8,1.4,3.8,3.4c0,1.4-0.9,2.2-1.5,2.5c0.7,0.4,1.7,1.1,1.7,2.7c0,2.3-1.5,3.5-3.7,3.5L77,22.9L77,22.9z M78,12.9v2.8h2.3
			c1,0,1.5-0.6,1.5-1.4s-0.6-1.4-1.5-1.4L78,12.9L78,12.9z M80.5,20.8c1,0,1.6-0.7,1.6-1.5s-0.5-1.5-1.6-1.5H78v3H80.5z"/>
		<path class="st0" d="M88.2,19.1c0,1.2,0.7,2,2,2c0.6,0,1.1-0.1,1.5-0.5c0.4-0.2,0.6-0.3,0.8-0.3c0.4,0,0.9,0.4,0.9,0.9
			c0,0.4-0.4,0.8-0.9,1.1c-0.6,0.4-1.4,0.6-2.4,0.6c-2.1,0-4.1-0.9-4.1-4.6c0-2.9,1.5-4.6,3.9-4.6c2.4,0,3.8,1.7,3.9,3.9
			c0,0.4-0.1,0.7-0.3,1c-0.3,0.3-0.6,0.3-1,0.3L88.2,19.1L88.2,19.1z M91.4,16.7c-0.2-0.6-0.7-0.9-1.5-0.9s-1.2,0.4-1.5,0.9
			c-0.1,0.3-0.2,0.6-0.2,1h3.4C91.5,17.2,91.5,17,91.4,16.7z"/>
		<path class="st0" d="M95.9,16h-0.2c-0.4,0-0.6,0-0.7-0.1c-0.2-0.1-0.4-0.4-0.4-0.7c0-0.3,0.1-0.6,0.4-0.7c0.2-0.1,0.3-0.1,0.7-0.1
			h0.2v-1.2c0-0.6,0-0.7,0.1-1c0.2-0.3,0.5-0.6,1-0.6c0.4,0,0.8,0.2,1,0.6c0.1,0.2,0.1,0.4,0.1,1v1.2h0.7c0.4,0,0.6,0,0.7,0.1
			c0.2,0.1,0.4,0.4,0.4,0.7c0,0.3-0.1,0.6-0.4,0.7C99.3,16,99.2,16,98.8,16h-0.7v4.3c0,0.4,0.1,0.7,0.7,0.8c0.3,0,0.5,0.1,0.7,0.1
			c0.2,0.1,0.4,0.4,0.4,0.8c0,0.4-0.2,0.7-0.4,0.8c-0.2,0.1-0.5,0.1-0.9,0.1h-0.1c-1.9,0-2.6-1.2-2.6-2.5L95.9,16L95.9,16z"/>
		<path class="st0" d="M101.9,16h-0.2c-0.4,0-0.6,0-0.7-0.1c-0.2-0.1-0.4-0.4-0.4-0.7c0-0.3,0.1-0.6,0.4-0.7
			c0.2-0.1,0.3-0.1,0.7-0.1h0.2v-1.2c0-0.6,0-0.7,0.1-1c0.2-0.3,0.5-0.6,1-0.6c0.4,0,0.8,0.2,1,0.6c0.1,0.2,0.1,0.4,0.1,1v1.2h0.7
			c0.4,0,0.6,0,0.7,0.1c0.2,0.1,0.4,0.4,0.4,0.7c0,0.3-0.1,0.6-0.4,0.7c-0.2,0.1-0.3,0.1-0.7,0.1h-0.7v4.3c0,0.4,0.1,0.7,0.7,0.8
			c0.3,0,0.5,0.1,0.7,0.1c0.2,0.1,0.4,0.4,0.4,0.8c0,0.4-0.2,0.7-0.4,0.8c-0.2,0.1-0.5,0.1-0.9,0.1h-0.1c-1.9,0-2.6-1.2-2.6-2.5
			L101.9,16L101.9,16z"/>
		<path class="st0" d="M109,19.1c0,1.2,0.7,2,2,2c0.6,0,1.1-0.1,1.5-0.5c0.4-0.2,0.6-0.3,0.8-0.3c0.4,0,0.9,0.4,0.9,0.9
			c0,0.4-0.4,0.8-0.9,1.1c-0.6,0.4-1.4,0.6-2.4,0.6c-2.1,0-4.1-0.9-4.1-4.6c0-2.9,1.5-4.6,3.9-4.6c2.4,0,3.8,1.7,3.9,3.9
			c0,0.4-0.1,0.7-0.3,1c-0.3,0.3-0.6,0.3-1,0.3L109,19.1L109,19.1z M112.2,16.7c-0.2-0.6-0.7-0.9-1.5-0.9s-1.2,0.4-1.5,0.9
			c-0.1,0.3-0.2,0.6-0.2,1h3.4C112.3,17.2,112.3,17,112.2,16.7z"/>
		<path class="st0" d="M120.6,13.9c0.7,0,1.1,0.1,1.5,0.4c0.3,0.2,0.6,0.6,0.6,0.9c0,0.3-0.1,0.6-0.3,0.8c-0.2,0.2-0.5,0.3-0.7,0.3
			s-0.4-0.1-0.7-0.2c-0.2-0.1-0.6-0.2-0.9-0.2c-0.7,0-1.5,0.5-1.5,1.6v3.9c0,0.6,0,0.7-0.1,1c-0.2,0.3-0.5,0.6-1,0.6s-0.8-0.2-1-0.6
			c-0.1-0.2-0.1-0.4-0.1-1v-6c0-0.6,0-0.7,0.2-1c0.2-0.3,0.6-0.5,0.9-0.5c0.3,0,0.6,0.1,0.7,0.2c0.2,0.2,0.3,0.4,0.3,0.7
			C118.9,14.4,119.7,13.9,120.6,13.9z"/>
	</g>
	<g>
		<g>
			<path class="st0" d="M38.9,19.7l-2-3.9v5.4c0,0.6,0,0.7-0.2,1c-0.2,0.3-0.6,0.6-1,0.6s-0.9-0.2-1-0.6c-0.1-0.3-0.2-0.5-0.2-1
				v-9.1c0-0.5,0.1-0.9,0.4-1.1c0.2-0.2,0.5-0.3,0.8-0.3s0.5,0.1,0.7,0.2c0.2,0.1,0.4,0.4,0.6,0.7l3,5.7l3-5.7
				c0.1-0.3,0.4-0.6,0.6-0.7c0.2-0.1,0.4-0.2,0.7-0.2c0.3,0,0.6,0.1,0.8,0.3c0.3,0.3,0.4,0.6,0.4,1.1v9.1c0,0.6,0,0.7-0.2,1
				c-0.2,0.3-0.6,0.6-1,0.6s-0.9-0.2-1-0.6C43,22,43,21.8,43,21.3v-5.4l-1.8,3.8c-0.3,0.6-0.6,0.8-1.1,0.8S39.2,20.3,38.9,19.7z"/>
			<path class="st0" d="M44.3,22.9c-0.5,0-0.9-0.2-1.1-0.6C43,22,43,21.8,43,21.3v-5.1l-1.8,3.5c-0.3,0.6-0.6,0.9-1.2,0.9
				c-0.6,0-0.9-0.3-1.2-0.9L37,16.2v5.1c0,0.6,0,0.7-0.2,1c-0.2,0.4-0.6,0.6-1.1,0.6s-0.9-0.2-1.1-0.6c-0.2-0.3-0.2-0.6-0.2-1v-9.1
				c0-0.5,0.1-0.9,0.4-1.2c0.2-0.2,0.5-0.4,0.9-0.4c0.3,0,0.6,0.1,0.7,0.2c0.3,0.2,0.5,0.6,0.6,0.7l2.9,5.6l2.9-5.6
				c0.1-0.2,0.3-0.6,0.6-0.7c0.2-0.1,0.4-0.2,0.7-0.2c0.4,0,0.6,0.1,0.9,0.4c0.3,0.3,0.4,0.7,0.4,1.2v9.1c0,0.6,0,0.7-0.2,1
				C45.3,22.7,44.8,22.9,44.3,22.9z M43.2,15.4v5.9c0,0.6,0,0.7,0.1,1c0.2,0.3,0.6,0.5,0.9,0.5c0.4,0,0.7-0.2,0.9-0.5
				c0.1-0.2,0.1-0.4,0.1-1v-9.1c0-0.5-0.1-0.8-0.3-1c-0.2-0.2-0.4-0.3-0.7-0.3c-0.2,0-0.4,0.1-0.7,0.2c-0.2,0.1-0.4,0.4-0.6,0.7
				L40,17.5l-3.1-5.9c-0.2-0.3-0.4-0.6-0.6-0.7c-0.2-0.1-0.4-0.2-0.7-0.2c-0.3,0-0.6,0.1-0.7,0.3c-0.2,0.2-0.3,0.6-0.3,1v9.1
				c0,0.6,0,0.7,0.1,1c0.2,0.3,0.6,0.5,0.9,0.5c0.4,0,0.7-0.2,0.9-0.5c0.3-0.2,0.3-0.4,0.3-1v-5.9l2.2,4.2c0.3,0.6,0.6,0.8,1,0.8
				c0.5,0,0.7-0.2,1-0.8L43.2,15.4z"/>
		</g>
		<g>
			<path class="st0" d="M50.8,22.9c-0.9,0-1.6-0.3-2.1-0.8c-0.7-0.7-0.9-1.5-0.9-2.5v-4.2c0-0.6,0-0.7,0.1-1
				c0.2-0.3,0.5-0.5,0.9-0.5c0.4,0,0.8,0.2,0.9,0.5c0.1,0.2,0.1,0.4,0.1,1v3.9c0,1.2,0.7,1.6,1.5,1.6c0.7,0,1.5-0.4,1.5-1.6v-3.9
				c0-0.6,0-0.7,0.1-1c0.2-0.3,0.5-0.5,0.9-0.5c0.4,0,0.8,0.2,0.9,0.5c0.1,0.2,0.1,0.4,0.1,1v5.9c0,0.6,0,0.7-0.2,1
				c-0.2,0.3-0.6,0.5-0.9,0.5c-0.3,0-0.6-0.1-0.7-0.2c-0.2-0.2-0.2-0.4-0.3-0.6C52.4,22.6,51.6,22.9,50.8,22.9z"/>
			<path class="st0" d="M50.8,23c-0.9,0-1.6-0.3-2.2-0.8c-0.6-0.6-0.9-1.4-0.9-2.6v-4.2c0-0.6,0-0.7,0.1-1c0.2-0.4,0.6-0.6,1-0.6
				c0.5,0,0.9,0.2,1,0.6c0.1,0.2,0.1,0.5,0.1,1v3.9c0,1.4,1,1.5,1.4,1.5s1.4-0.1,1.4-1.5v-3.9c0-0.6,0-0.7,0.1-1
				c0.2-0.4,0.6-0.6,1-0.6c0.5,0,0.9,0.2,1,0.6c0.1,0.2,0.1,0.5,0.1,1v5.9c0,0.6,0,0.7-0.2,1s-0.6,0.6-1,0.6c-0.3,0-0.6-0.1-0.7-0.3
				c-0.2-0.1-0.2-0.3-0.3-0.5C52.4,22.7,51.6,23,50.8,23z M48.9,14c-0.4,0-0.7,0.2-0.9,0.5c-0.1,0.2-0.1,0.4-0.1,0.9v4.2
				c0,1.1,0.2,1.9,0.9,2.4c0.5,0.5,1.2,0.7,2,0.7c0.8,0,1.6-0.3,2.2-0.9l0.1-0.1l0.1,0.2c0.1,0.3,0.1,0.4,0.3,0.6
				c0.2,0.1,0.4,0.2,0.6,0.2c0.4,0,0.7-0.2,0.9-0.4c0.1-0.2,0.1-0.4,0.1-0.9v-5.9c0-0.6,0-0.7-0.1-0.9c-0.1-0.3-0.5-0.5-0.9-0.5
				c-0.4,0-0.7,0.2-0.9,0.5c-0.1,0.2-0.1,0.4-0.1,0.9v3.9c0,1.2-0.8,1.7-1.5,1.7S50,20.6,50,19.4v-3.9c0-0.6,0-0.7-0.1-0.9
				C49.6,14.2,49.3,14,48.9,14z"/>
		</g>
		<g>
			<path class="st0" d="M62.5,14.3c0.5,0.2,1,0.7,1,1.2c0,0.3-0.1,0.5-0.3,0.7c-0.1,0.2-0.4,0.3-0.7,0.3s-0.4-0.1-0.7-0.3
				c-0.4-0.2-0.6-0.4-1-0.4c-0.5,0-0.9,0.2-1.2,0.6c-0.3,0.4-0.5,1-0.5,1.9c0,0.9,0.1,1.5,0.5,2c0.3,0.4,0.7,0.6,1.2,0.6
				c0.4,0,0.7-0.1,1-0.4c0.3-0.2,0.5-0.3,0.7-0.3c0.2,0,0.5,0.1,0.7,0.3c0.2,0.2,0.3,0.4,0.3,0.7c0,0.6-0.6,1-1,1.2
				c-0.5,0.3-1,0.4-1.7,0.4c-1.7,0-3.9-0.9-3.9-4.5s2.2-4.5,3.9-4.5C61.5,13.9,62,14,62.5,14.3z"/>
			<path class="st0" d="M60.8,23C60,23,59,22.8,58,22.1c-0.9-0.8-1.4-2-1.4-3.6c0-1.7,0.4-2.8,1.4-3.6c0.9-0.8,2-0.9,2.7-0.9
				c0.7,0,1.2,0.1,1.8,0.4c0.5,0.2,1.1,0.7,1.1,1.3c0,0.3-0.1,0.6-0.3,0.8c-0.2,0.2-0.5,0.3-0.7,0.3c-0.2,0-0.5-0.1-0.8-0.3
				c-0.4-0.2-0.6-0.4-1-0.4c-0.5,0-0.9,0.2-1.2,0.6c-0.3,0.4-0.5,1-0.5,1.9c0,0.9,0.1,1.5,0.5,1.9c0.3,0.4,0.7,0.6,1.2,0.6
				c0.4,0,0.7-0.1,1-0.4c0.3-0.2,0.5-0.4,0.8-0.4c0.2,0,0.6,0.1,0.7,0.3c0.2,0.2,0.3,0.5,0.3,0.8c0,0.5-0.4,0.9-1.1,1.4
				C62,22.9,61.5,23,60.8,23z M60.8,14c-1.2,0-3.8,0.4-3.8,4.4c0,4,2.7,4.4,3.8,4.4c0.7,0,1.2-0.1,1.7-0.4c0.7-0.4,1-0.7,1-1.2
				c0-0.2-0.1-0.4-0.3-0.7c-0.1-0.1-0.4-0.2-0.6-0.2s-0.4,0.1-0.7,0.3c-0.4,0.3-0.7,0.4-1.1,0.4c-0.6,0-1-0.2-1.3-0.6
				c-0.4-0.4-0.5-1-0.5-2s0.2-1.5,0.5-2c0.3-0.4,0.7-0.6,1.3-0.6c0.5,0,0.7,0.1,1.1,0.4c0.3,0.2,0.5,0.3,0.7,0.3
				c0.2,0,0.4-0.1,0.6-0.2c0.2-0.2,0.3-0.4,0.3-0.7c0-0.6-0.6-1-1-1.2l0,0C62,14.1,61.5,14,60.8,14z"/>
		</g>
		<g>
			<path class="st0" d="M72.3,22.3c-0.2,0.3-0.5,0.5-0.9,0.5c-0.4,0-0.8-0.2-0.9-0.5c-0.1-0.2-0.1-0.4-0.1-1v-3.9
				c0-1.2-0.7-1.6-1.5-1.6s-1.5,0.4-1.5,1.6v3.9c0,0.6,0,0.7-0.1,1c-0.2,0.3-0.5,0.5-0.9,0.5s-0.8-0.2-0.9-0.5
				c-0.1-0.2-0.1-0.4-0.1-1v-9.1c0-0.6,0-0.7,0.1-1c0.2-0.3,0.5-0.5,0.9-0.5s0.8,0.2,0.9,0.5c0.1,0.2,0.1,0.4,0.1,1v2.6
				c0.6-0.6,1.2-0.9,2.2-0.9c0.9,0,1.6,0.3,2.1,0.8c0.7,0.7,0.9,1.5,0.9,2.5v4.2C72.5,21.9,72.4,22.1,72.3,22.3z"/>
			<path class="st0" d="M71.4,22.9c-0.5,0-0.9-0.2-1-0.6c-0.1-0.2-0.1-0.5-0.1-1v-3.9c0-1.4-1-1.5-1.4-1.5s-1.4,0.1-1.4,1.5v3.9
				c0,0.6,0,0.7-0.1,1c-0.2,0.4-0.6,0.6-1,0.6s-0.9-0.2-1-0.6c-0.1-0.2-0.1-0.5-0.1-1v-9.1c0-0.6,0-0.7,0.1-1c0.2-0.4,0.6-0.6,1-0.6
				c0.5,0,0.9,0.2,1,0.6c0.1,0.2,0.1,0.5,0.1,1v2.4c0.6-0.6,1.2-0.8,2-0.8c0.9,0,1.6,0.3,2.2,0.8c0.6,0.6,0.9,1.4,0.9,2.6v4.2
				c0,0.6,0,0.7-0.1,1C72.2,22.8,71.9,22.9,71.4,22.9z M68.8,15.8c0.7,0,1.5,0.4,1.5,1.7v3.9c0,0.6,0,0.7,0.1,0.9
				c0.1,0.3,0.5,0.5,0.9,0.5s0.7-0.2,0.9-0.5l0,0c0.1-0.2,0.1-0.4,0.1-0.9v-4.2c0-1.1-0.2-1.9-0.9-2.4c-0.5-0.5-1.2-0.7-2-0.7
				s-1.5,0.2-2.1,0.9L67.2,15v-2.8c0-0.6,0-0.7-0.1-0.9c-0.1-0.3-0.5-0.5-0.9-0.5c-0.4,0-0.7,0.2-0.9,0.5c-0.1,0.2-0.1,0.4-0.1,0.9
				v9.2c0,0.6,0,0.7,0.1,0.9c0.1,0.3,0.5,0.5,0.9,0.5s0.7-0.2,0.9-0.5c0.1-0.2,0.1-0.4,0.1-0.9v-3.9C67.2,16.2,68,15.8,68.8,15.8z"
				/>
		</g>
	</g>
</g>
</svg>
