<?xml version="1.0" encoding="utf-8"?>
<!-- Generator: Adobe Illustrator 23.1.0, SVG Export Plug-In . SVG Version: 6.00 Build 0)  -->
<svg version="1.1" id="Layer_1" xmlns="http://www.w3.org/2000/svg" xmlns:xlink="http://www.w3.org/1999/xlink" x="0px" y="0px"
	 viewBox="0 0 284.6 84.5" style="enable-background:new 0 0 284.6 84.5;" xml:space="preserve">
<style type="text/css">
	.st0{fill-rule:evenodd;clip-rule:evenodd;fill:#C1C1C1;}
</style>
<g id="svgg">
	<path id="path0" class="st0" d="M31.6,0.3c0,0.1-0.1,0.2-0.3,0.2c-0.2,0-0.3,0.1-0.3,0.7c0,0.6-0.1,0.7-0.4,1
		c-0.3,0.3-0.3,0.4-0.3,0.9c0,0.5,0,0.6-0.3,0.6c-0.2,0-0.3,0.1-0.3,1l0,1h-0.4c-0.4,0-0.4,0-0.4,0.7c0,0.6,0,0.7-0.2,0.7
		c-0.3,0-0.5,0.6-0.5,1.4c0,0.4,0,0.5-0.3,0.5c-0.2,0-0.3,0.1-0.3,1l0,1h-0.4c-0.3,0-0.4,0-0.4,0.6c0,0.6,0,0.6-0.3,0.7
		c-0.2,0-0.3,0.1-0.3,1l0,1H26c-0.3,0-0.4,0-0.4,0.7c0,0.6,0,0.7-0.2,0.8c-0.3,0.1-0.5,0.6-0.5,1.3c0,0.5,0,0.6-0.3,0.6
		c-0.2,0-0.3,0.1-0.3,1c0,0.9,0,0.9-0.4,1c-0.3,0.1-0.4,0.1-0.4,0.7c0,0.5,0,0.6-0.3,0.7c-0.2,0.1-0.3,0.3-0.4,1
		c-0.1,0.9-0.1,0.9-0.4,0.9c-0.3,0-0.3,0.1-0.3,0.9c0,0.8-0.1,0.9-0.4,1c-0.3,0.1-0.3,0.2-0.3,0.8c0,0.6,0,0.6-0.3,0.7
		c-0.2,0-0.3,0.1-0.3,0.9c0,0.9,0,0.9-0.4,1c-0.3,0.1-0.4,0.1-0.4,0.7c0,0.5,0,0.7-0.2,0.8c-0.3,0.2-0.4,0.4-0.5,1.2
		c-0.1,0.6-0.1,0.7-0.3,0.7c-0.3,0-0.3,0.1-0.3,1c0,0.9,0,0.9-0.3,1c-0.3,0-0.3,0.1-0.4,0.7c0,0.6-0.1,0.7-0.3,0.7
		c-0.2,0-0.3,0.1-0.3,0.9c0,0.9,0,0.9-0.4,1C17,37.2,17,37.2,17,37.9c0,0.5,0,0.7-0.2,0.8c-0.2,0.1-0.5,0.8-0.5,1.3
		c0,0.3-0.1,0.4-0.3,0.5c-0.3,0.1-0.3,0.2-0.3,1c0,0.9,0,0.9-0.3,0.9c-0.3,0-0.3,0.1-0.4,0.7c0,0.5-0.1,0.7-0.3,0.8
		c-0.2,0.1-0.3,0.2-0.3,1c0,0.8,0,0.9-0.4,0.9c-0.3,0-0.3,0-0.4,1c0,0.9,0,1-0.3,1c-0.3,0-0.4,0.2-0.4,0.8c0,0.4-0.1,0.5-0.3,0.6
		c-0.3,0.1-0.3,0.2-0.3,1c0,0.9,0,0.9-0.3,0.9c-0.3,0-0.3,0.1-0.4,0.7c0,0.5-0.1,0.7-0.3,0.8c-0.2,0.2-0.3,0.4-0.3,1
		c0,0.7-0.1,0.8-0.4,0.8c-0.3,0-0.3,0.1-0.3,1c0,1,0,1-0.4,1c-0.3,0-0.3,0.1-0.4,0.7c0,0.5-0.1,0.6-0.2,0.7C9.1,58,9,58.1,9,59
		c0,0.8,0,0.8-0.3,0.8c-0.3,0-0.3,0.1-0.4,0.8c0,0.8-0.2,1.2-0.5,1.2c-0.1,0-0.2,0.1-0.2,0.4c0,0.6-0.1,0.9-0.4,1
		c-0.2,0.1-0.3,0.2-0.3,1c0,0.9,0,0.9-0.3,0.9c-0.3,0-0.4,0.2-0.4,0.9c0,0.4,0,0.5-0.2,0.5c-0.3,0-0.4,0.5-0.4,1.2
		c0,0.6,0,0.6-0.3,0.7c-0.3,0-0.3,0-0.4,1c0,0.9,0,1-0.3,1c-0.2,0-0.3,0.1-0.4,0.6c-0.1,0.5-0.1,0.7-0.3,0.7c-0.2,0.1-0.3,0.2-0.3,1
		c0,0.9,0,0.9-0.3,0.9C3.1,73.8,3,74,3,74.7c0,0.4-0.1,0.6-0.3,0.8c-0.3,0.2-0.3,0.3-0.3,0.9c0,0.7,0,0.7-0.3,0.7
		c-0.4,0-0.4,0.2-0.4,1.1c0,0.7,0,0.8-0.3,0.8c-0.3,0.1-0.4,0.4-0.4,1.1c0,0.2-0.1,0.3-0.2,0.3c-0.3,0.1-0.4,0.4-0.4,1.2
		c0,0.5,0,0.6-0.2,0.6C0,82.3,0,82.6,0,83.5v1.2h6.2c6.1,0,6.2,0,6.2-0.2c0-0.1,0.1-0.4,0.3-0.5c0.2-0.2,0.3-0.4,0.3-0.9
		c0-0.6,0-0.7,0.3-0.7c0.4,0,0.4-0.2,0.4-1.1c0-0.6,0-0.8,0.2-0.8c0.3,0,0.5-0.4,0.5-0.9c0-0.4,0.1-0.6,0.3-0.7
		c0.2-0.1,0.3-0.3,0.3-1c0-0.7,0.1-0.8,0.3-0.9c0.4-0.1,0.4-0.3,0.4-1.1c0-0.7,0-0.8,0.3-0.8c0.2,0,0.3-0.1,0.3-0.7
		c0-0.6,0.1-0.7,0.3-0.7c0.3,0,0.5-0.4,0.5-1.3c0-0.4,0-0.6,0.1-0.6c0.4,0,0.5-0.2,0.6-1c0.1-0.7,0.1-0.8,0.3-0.9
		c0.2-0.1,0.3-0.2,0.3-0.8c0-0.6,0-0.7,0.3-0.7c0.3,0,0.4-0.3,0.4-1.3c0-0.5,0-0.6,0.3-0.6c0.2,0,0.3-0.1,0.3-0.7
		c0-0.5,0.1-0.7,0.4-1c0.3-0.3,0.3-0.4,0.3-1c0-0.6,0-0.7,0.3-0.7c0.3-0.1,0.4-0.3,0.4-1.3c0-0.6,0-0.7,0.3-0.7c0.3,0,0.3,0,0.3-0.7
		c0-0.6,0-0.7,0.3-0.7c0.3,0,0.4-0.4,0.4-1.2c0-0.5,0-0.6,0.3-0.7c0.2,0,0.3-0.1,0.3-0.8c0-0.8,0.2-1.2,0.6-1.2
		c0.1,0,0.2-0.2,0.2-0.6c0-0.6,0-0.6,0.3-0.7c0.3-0.1,0.4-0.5,0.4-1.5l0-0.5h2.3H29v1c0,0.9,0,1-0.3,1.1c-0.3,0.2-0.4,0.6-0.4,2.2
		c0,1.1,0,1.2-0.3,1.5c-0.3,0.3-0.3,0.4-0.3,2v1.6h-0.3C27,61.8,27,62,27,63.6c0,1.4,0,1.5-0.3,1.6c-0.3,0.1-0.3,0.2-0.3,2l0,1.9
		L26,69.1l-0.4,0.1l0,1.6c0,1.6,0,1.6-0.3,1.7c-0.3,0-0.4,0.4-0.4,2c0,1.2,0,1.3-0.2,1.4c-0.3,0.1-0.4,0.4-0.4,2.2l0,1.6l-0.3,0
		l-0.3,0l0,1.6c0,1.6,0,1.6-0.3,1.7c-0.3,0.1-0.3,0.1-0.3,0.8v0.8h6.7h6.7v-0.8c0-0.8,0-0.8,0.3-0.9l0.3-0.1v-2v-2h0.3
		c0.4,0,0.4-0.2,0.4-2c0-1.6,0-1.7,0.3-1.8c0.3-0.2,0.3-0.2,0.3-1.8c0-1.6,0-1.6,0.2-1.7c0.4-0.1,0.5-0.5,0.5-2.2
		c0-1.5,0-1.6,0.3-1.7c0.4-0.2,0.4-0.6,0.4-2.5c0-1.4,0-1.4,0.3-1.5c0.3,0,0.3-0.1,0.3-1.9l0-1.9l0.4-0.1l0.4-0.1v-1.9v-1.9h0.3h0.3
		V54c0-1.6,0-1.7,0.2-1.8c0.3-0.1,0.5-0.6,0.5-1.3v-0.6l0.6,0c0.5,0,0.6-0.1,0.7-0.3c0-0.2,0.1-0.3,0.3-0.3c0.2,0,0.3-0.1,0.4-0.3
		c0.1-0.3,0.3-0.3,0.7-0.4c0.5-0.1,0.5-0.1,0.6-0.4c0-0.2,0.1-0.3,0.4-0.4c0.2,0,0.3-0.1,0.4-0.3c0-0.2,0.1-0.3,0.3-0.3
		c0.2,0,0.3-0.1,0.3-0.4c0-0.3,0-0.4,0.4-0.4c0.3,0,0.4,0,0.4-0.3c0-0.2,0.1-0.3,0.4-0.4c0.2-0.1,0.4-0.2,0.4-0.4
		c0-0.1,0-0.2,0.1-0.2c0.3,0,0.5-0.4,0.5-0.8c0-0.4,0-0.5,0.3-0.5c0.3,0,0.3-0.1,0.4-0.7c0-0.5,0.1-0.6,0.3-0.7
		c0.2,0,0.3-0.1,0.3-0.7c0-0.6,0.1-0.7,0.3-0.7c0.4,0,0.4-0.2,0.4-1.1c0-0.6,0-0.8,0.2-0.8c0.3,0,0.5-0.4,0.5-1c0-0.4,0-0.6,0.2-0.6
		c0.2,0,0.4-0.5,0.4-1.2c0-0.5,0-0.6,0.3-0.7c0.3-0.1,0.4-0.3,0.4-1.3c0-0.6,0-0.7,0.3-0.7c0.2,0,0.3-0.1,0.3-0.7
		c0-0.5,0.1-0.7,0.3-0.7c0.3-0.1,0.5-0.5,0.5-1.3c0-0.5,0-0.6,0.3-0.7c0.3-0.1,0.4-0.3,0.4-1.3c0-0.6,0-0.7,0.3-0.7
		c0.3,0,0.3,0,0.3-0.7c0-0.6,0-0.7,0.3-0.7c0.3,0,0.4-0.4,0.4-1.2c0-0.5,0-0.6,0.3-0.7c0.2,0,0.3-0.1,0.3-1c0-1,0-1,0.4-1
		c0.3,0,0.3-0.1,0.4-0.7c0-0.6,0.1-0.7,0.3-0.7c0.3,0,0.4-0.4,0.4-1.2c0-0.5,0-0.6,0.3-0.7c0.2,0,0.3-0.1,0.3-0.8
		c0-0.8,0.2-1.2,0.6-1.2c0.1,0,0.2-0.2,0.2-0.6c0-0.6,0-0.6,0.3-0.8c0.3-0.1,0.3-0.2,0.3-1c0-0.9,0-0.9,0.3-0.9
		c0.3,0,0.3-0.1,0.4-0.7c0-0.6,0.1-0.7,0.4-1.1c0.3-0.3,0.4-0.5,0.4-0.9c0-0.5,0-0.6,0.3-0.7c0.2-0.1,0.3-0.2,0.3-1
		c0-0.8,0.1-0.9,0.3-1c0.4-0.1,0.4-0.4,0.4-3l0-2.1l-0.3,0c-0.3,0-0.3-0.1-0.3-0.7c0-0.6,0-0.8-0.3-1c-0.2-0.2-0.3-0.4-0.4-0.6
		c-0.1-0.3-0.1-0.4-0.4-0.4c-0.2,0-0.3-0.1-0.3-0.3c0-0.2-0.1-0.3-0.3-0.3c-0.2,0-0.3-0.1-0.4-0.3c-0.1-0.3-0.1-0.3-0.7-0.3
		c-0.4,0-0.6-0.1-0.6-0.2c0-0.1-1.8-0.2-13.7-0.2C33.5,0.2,31.6,0.2,31.6,0.3 M88.9,0.3c0,0.1-0.1,0.2-0.6,0.2c-0.5,0-0.7,0.1-1,0.3
		c-0.2,0.2-0.4,0.3-0.5,0.3c-0.4,0-0.6,0.1-0.6,0.4c0,0.3-0.1,0.3-0.6,0.3c-0.6,0-0.6,0.1-0.7,0.4c0,0.2-0.1,0.3-0.4,0.4
		c-0.2,0-0.3,0.1-0.4,0.3c0,0.2-0.1,0.3-0.3,0.3c-0.1,0-0.4,0.1-0.6,0.3c-0.2,0.2-0.5,0.4-0.6,0.5c-0.2,0.1-0.4,0.4-0.4,0.6
		c0,0.2-0.2,0.4-0.4,0.5c-0.3,0.1-0.3,0.2-0.3,0.5c0,0.3-0.1,0.3-0.3,0.4c-0.2,0-0.3,0.1-0.4,0.3c0,0.2-0.1,0.3-0.3,0.3
		c-0.3,0.1-0.3,0.1-0.3,0.7c0,0.6,0,0.6-0.4,0.6c-0.4,0-0.4,0-0.4,0.6c0,0.6,0,0.6-0.3,0.7c-0.2,0-0.3,0.1-0.3,0.6
		c-0.1,1.1-0.1,1.4-0.5,1.4c-0.3,0-0.3,0-0.3,0.7c0,0.6,0,0.7-0.2,0.7c-0.3,0.1-0.5,0.6-0.5,1.4c0,0.5,0,0.6-0.3,0.6
		c-0.3,0-0.3,0-0.3,0.9v0.9l-0.4,0.1c-0.3,0.1-0.4,0.1-0.4,0.7c0,0.4,0,0.7-0.1,0.7c-0.3,0-0.5,0.4-0.6,1.2
		c-0.1,0.7-0.1,0.8-0.3,0.9C75,19.9,75,20,75,20.8c0,0.9,0,0.9-0.4,1c-0.3,0-0.3,0.1-0.4,0.7c0,0.5-0.1,0.7-0.2,0.7
		c-0.3,0-0.4,0.4-0.4,1.2c0,0.7,0,0.7-0.4,0.8c-0.4,0.1-0.4,0.1-0.4,1c0,0.9,0,0.9-0.3,0.9c-0.3,0-0.4,0.3-0.4,1.1
		c0,0.2-0.1,0.3-0.2,0.3c-0.3,0-0.4,0.4-0.4,1.2c0,0.6,0,0.7-0.2,0.7c-0.4,0-0.5,0.3-0.5,1.2c0,0.8,0,0.9-0.3,0.9
		c-0.3,0-0.3,0-0.3,0.7c0,0.6,0,0.7-0.2,0.7c-0.3,0-0.5,0.4-0.5,1.2c0,0.6,0,0.6-0.3,0.7c-0.3,0-0.4,0.4-0.4,1.3
		c0,0.6,0,0.7-0.3,0.7c-0.3,0-0.3,0-0.3,0.6c0,0.6,0,0.7-0.3,0.8c-0.3,0.1-0.4,0.6-0.4,1.4c0,0.5,0,0.5-0.3,0.5c-0.3,0-0.3,0-0.3,1
		v1h-0.4c-0.4,0-0.4,0-0.4,0.6c0,0.6,0,0.6-0.3,0.7c-0.3,0.1-0.4,0.5-0.4,1.5c0,0.4,0,0.5-0.3,0.5c-0.2,0-0.3,0.1-0.3,0.8
		c0,0.8-0.1,0.8-0.4,1c-0.3,0.2-0.3,0.3-0.4,0.8c0,0.6,0,0.6-0.3,0.7c-0.3,0.1-0.3,0.1-0.3,1v0.9h-0.4H63l0,0.8c0,0.7-0.1,0.9-0.3,1
		c-0.4,0.2-0.4,0.3-0.4,0.9c0,0.5,0,0.6-0.3,0.6c-0.2,0-0.3,0.1-0.3,0.9c0,0.9,0,0.9-0.4,1c-0.3,0.1-0.3,0.2-0.4,0.9
		c0,0.7-0.1,0.8-0.3,0.9c-0.2,0.1-0.3,0.2-0.3,0.5c0,0.6-0.1,1-0.4,1c-0.3,0-0.4,0.2-0.4,1.1c0,0.7,0,0.8-0.2,0.8
		c-0.4,0-0.5,0.3-0.5,0.9c0,0.5-0.1,0.7-0.3,0.9c-0.2,0.2-0.3,0.4-0.3,0.9c0,0.6-0.1,0.7-0.3,0.7c-0.4,0.1-0.4,0.2-0.4,1.1
		c0,0.7,0,0.8-0.3,0.8c-0.2,0-0.3,0.1-0.4,0.8c-0.1,0.5-0.2,0.8-0.4,1c-0.2,0.2-0.3,0.5-0.3,0.9c0,0.5,0,0.6-0.3,0.7
		c-0.3,0.1-0.4,0.4-0.4,1.4c0,0.5,0,0.6-0.3,0.6c-0.3,0-0.3,0-0.3,0.7c0,0.6,0,0.7-0.4,1.1c-0.3,0.3-0.4,0.4-0.4,0.9
		c0,0.5,0,0.6-0.3,0.6c-0.3,0-0.4,0.4-0.4,1.4c0,0.6,0,0.6-0.3,0.6c-0.3,0-0.3,0-0.3,0.7c0,0.6,0,0.7-0.4,1.1
		c-0.3,0.3-0.4,0.4-0.4,0.9c0,0.5,0,0.6-0.3,0.6c-0.2,0-0.3,0.1-0.3,1l0,1h-0.4c-0.3,0-0.4,0-0.4,0.5v0.5h6.7h6.7v-0.5
		c0-0.4,0.1-0.5,0.3-0.6c0.3-0.1,0.4-0.5,0.4-1.3c0-0.5,0-0.6,0.3-0.6c0.3-0.1,0.3-0.1,0.3-1c0-0.9,0-0.9,0.3-1
		c0.3,0,0.3-0.1,0.4-0.7c0-0.5,0.1-0.7,0.2-0.7c0.2,0,0.5-0.7,0.5-1.3c0-0.5,0-0.5,0.3-0.6c0.3-0.1,0.3-0.1,0.3-1
		c0-0.9,0-0.9,0.3-0.9c0.3,0,0.4-0.2,0.4-0.9c0-0.4,0-0.5,0.2-0.5c0.3,0,0.4-0.4,0.4-1.2c0-0.6,0-0.7,0.2-0.7c0.4,0,0.5-0.3,0.5-1.1
		c0-0.8,0-0.9,0.3-0.9c0.3,0,0.3-0.1,0.4-0.7c0-0.5,0.1-0.7,0.2-0.7c0.2,0,0.4-0.5,0.4-1.3c0-0.6,0-0.6,0.3-0.6
		c0.3,0,0.4-0.2,0.4-1.3c0-0.7,0-0.7,0.3-0.7c0.3,0,0.3,0,0.3-0.7c0-0.5,0-0.7,0.2-0.7c0.3,0,0.5-0.5,0.5-1.2c0-0.6,0-0.7,0.3-0.7
		c0.3,0,0.4-0.3,0.4-1.3c0-0.5,0-0.6,0.3-0.6c0.3-0.1,0.3-0.1,0.3-0.7c0-0.5,0-0.7,0.3-0.9c0.3-0.2,0.3-0.4,0.4-1
		c0.1-0.7,0.1-0.8,0.3-0.8c0.3,0,0.3-0.1,0.3-1v-0.9l0.4-0.1c0.3-0.1,0.4-0.1,0.4-0.4v-0.3h4.7h4.7v0.4c0,0.3,0,0.4-0.3,0.4
		c-0.4,0-0.4,0.2-0.4,1.2c0,0.8,0,0.8-0.3,0.8c-0.3,0-0.4,0.2-0.4,0.9c0,0.4-0.1,0.6-0.3,0.8c-0.2,0.3-0.3,0.4-0.3,1
		c0,0.6,0,0.6-0.2,0.6c-0.3,0-0.4,0.2-0.5,1.1c-0.1,0.8-0.1,0.8-0.3,0.9c-0.2,0-0.3,0.1-0.3,0.8c0,0.8,0,0.8-0.4,1
		c-0.3,0.2-0.4,0.3-0.4,0.8c0,0.6,0,0.6-0.3,0.7c-0.3,0-0.4,0.4-0.4,1.2c0,0.5,0,0.6-0.3,0.7c-0.3,0.1-0.3,0.1-0.3,1
		c0,0.9,0,0.9-0.3,1c-0.3,0-0.3,0.1-0.4,0.7c0,0.5-0.1,0.7-0.3,0.8c-0.2,0.1-0.3,0.2-0.3,0.6c-0.1,1-0.1,1.2-0.4,1.3
		c-0.2,0-0.3,0.1-0.3,1c0,1,0,1-0.4,1c-0.3,0-0.3,0.1-0.4,0.7c0,0.5-0.1,0.7-0.2,0.7c-0.3,0-0.4,0.4-0.4,1.2c0,0.7,0,0.7-0.3,0.7
		c-0.4,0-0.4,0.2-0.4,1.2c0,0.8,0,0.8-0.3,0.8c-0.3,0-0.3,0.1-0.4,0.7c-0.1,0.5-0.1,0.7-0.3,0.7c-0.2,0-0.4,0.5-0.4,1.3
		c0,0.6,0,0.6-0.2,0.6c-0.3,0-0.5,0.4-0.5,1.2c0,0.8,0,0.8-0.3,0.8c-0.3,0-0.3,0-0.3,0.5v0.5h6.7h6.7v-0.5c0-0.4,0-0.5,0.3-0.5
		c0.3-0.1,0.3-0.1,0.3-0.9c0-0.8,0.1-0.9,0.4-1c0.3-0.1,0.3-0.2,0.3-0.8c0-0.6,0-0.6,0.3-0.7c0.3,0,0.4-0.4,0.4-1.3
		c0-0.6,0-0.6,0.3-0.7c0.3-0.1,0.3-0.1,0.3-1c0-0.9,0-0.9,0.3-1c0.3,0,0.3-0.1,0.4-0.7c0-0.5,0.1-0.7,0.3-0.8c0.2-0.1,0.3-0.2,0.3-1
		c0-0.7,0.1-0.9,0.2-0.9c0.4,0,0.5-0.3,0.5-1.2c0-0.8,0-0.9,0.3-0.9c0.3,0,0.4-0.2,0.4-0.9c0-0.4,0.1-0.6,0.3-0.7
		c0.2-0.1,0.3-0.3,0.3-1c0-0.6,0.1-0.8,0.3-0.8c0.4,0,0.5-0.3,0.5-1.2c0-0.8,0-0.9,0.3-0.9c0.3,0,0.3,0,0.3-0.8c0-0.6,0-0.8,0.2-0.8
		c0.1,0,0.2-0.1,0.3-0.2c0-0.1,0.1-0.2,0.2-0.2c0.1,0,0.1-0.3,0.1-0.6c0-0.6,0-0.6,0.3-0.7c0.3,0,0.4-0.4,0.4-1.3
		c0-0.6,0-0.7,0.3-0.7c0.3,0,0.3,0,0.3-0.9v-0.9l0.4-0.1c0.3-0.1,0.4-0.1,0.4-0.7c0-0.5,0-0.6,0.3-0.7c0.2-0.1,0.3-0.2,0.3-1
		c0-0.8,0-0.8,0.4-1c0.3-0.1,0.4-0.1,0.4-1c0-0.8,0-0.9,0.2-0.9c0.4,0,0.5-0.3,0.5-0.8c0-0.4,0-0.6,0.2-0.6c0.3-0.1,0.4-0.4,0.4-1.2
		c0-0.6,0-0.6,0.4-0.7c0.4-0.1,0.4-0.1,0.4-1c0-0.8,0-0.9,0.2-0.9c0.4,0,0.5-0.3,0.5-0.8c0-0.4,0.1-0.6,0.3-0.9
		c0.2-0.2,0.3-0.4,0.3-1c0-0.6,0-0.7,0.3-0.7c0.3-0.1,0.4-0.4,0.4-1.4c0-0.5,0-0.6,0.3-0.6c0.3,0,0.3,0,0.3-0.8
		c0-0.8,0.2-1.2,0.6-1.2c0.1,0,0.1-0.2,0.1-0.7c0-0.6,0-0.7,0.3-0.7c0.3-0.1,0.4-0.5,0.4-1.4c0-0.4,0-0.5,0.3-0.5
		c0.2,0,0.3-0.1,0.3-1c0-1,0-1,0.4-1c0.3,0,0.3-0.1,0.4-0.7c0-0.5,0.1-0.6,0.2-0.7c0.3-0.1,0.4-0.3,0.4-1.1c0-0.8,0-0.8,0.3-0.8
		c0.3,0,0.3,0,0.4-1c0-1,0-1,0.4-1c0.3,0,0.3-0.1,0.4-0.6c0-0.4,0.1-0.6,0.3-0.8c0.2-0.2,0.3-0.4,0.3-1c0-0.8,0.1-0.8,0.3-0.8
		c0.3,0,0.4-0.2,0.4-1.1c0-0.7,0-0.8,0.3-0.8c0.3-0.1,0.3-0.1,0.3-0.7c0-0.6,0-0.7,0.4-1c0.3-0.3,0.4-0.4,0.4-1c0-0.6,0-0.6,0.3-0.7
		c0.3,0,0.4-0.4,0.4-1.2c0-0.5,0-0.6,0.3-0.7c0.3-0.1,0.3-0.1,0.3-0.9c0-0.8,0.1-1.1,0.5-1.1c0.1,0,0.2-0.1,0.2-0.7
		c0-0.6,0-0.7,0.3-0.7c0.2,0,0.3-0.1,0.3-1c0-0.9,0-0.9,0.4-1c0.3,0,0.3,0,0.4-1c0-1,0-1,0.4-1c0.3,0,0.3-0.1,0.4-0.7
		c0-0.5,0.1-0.8,0.3-1l0.3-0.3l0-2.7c0-2.8,0-3-0.4-3.1c-0.1,0-0.2-0.3-0.3-0.7c-0.1-0.5-0.2-0.7-0.4-0.7c-0.2,0-0.3-0.1-0.3-0.4
		c0-0.2-0.1-0.3-0.4-0.4c-0.3,0-0.3-0.1-0.3-0.3c0-0.2-0.1-0.3-0.3-0.3c-0.2,0-0.3-0.2-0.4-0.4c-0.1-0.3-0.1-0.3-0.7-0.3
		c-0.4,0-0.6,0-0.6-0.2c0-0.2-1.3-0.2-11-0.2S88.9,0.2,88.9,0.3 M134.9,1c0,0.8,0,0.8-0.3,0.9c-0.3,0-0.3,0-0.4,1c0,1,0,1-0.4,1
		c-0.3,0-0.3,0.1-0.4,0.7c0,0.5-0.1,0.7-0.2,0.7c-0.3,0-0.4,0.4-0.4,1.2c0,0.7,0,0.7-0.3,0.7c-0.4,0-0.4,0.2-0.4,1.2
		c0,0.8,0,0.8-0.3,0.8c-0.3,0-0.3,0-0.3,0.6c0,0.5-0.1,0.7-0.2,0.8c-0.3,0.2-0.5,0.6-0.5,1.3c0,0.5,0,0.6-0.3,0.6
		c-0.3,0-0.4,0.4-0.4,1.3c0,0.6,0,0.7-0.3,0.7c-0.3,0-0.3,0-0.3,0.9c0,0.8-0.1,0.9-0.4,1c-0.3,0.1-0.3,0.2-0.3,0.8
		c0,0.6,0,0.6-0.3,0.7c-0.2,0-0.3,0.1-0.4,1c-0.1,0.9-0.1,1-0.4,1c-0.3,0-0.3,0-0.3,0.9c0,0.9,0,0.9-0.3,1c-0.3,0-0.3,0.1-0.4,0.7
		c0,0.4-0.1,0.7-0.1,0.7c-0.3,0-0.5,0.4-0.5,1.1c0,0.7,0,0.8-0.4,0.9c-0.4,0.1-0.4,0.1-0.4,1c0,0.9,0,0.9-0.3,0.9
		c-0.3,0-0.4,0.4-0.4,1.2c0,0.2-0.1,0.4-0.3,0.6c-0.2,0.2-0.3,0.4-0.3,0.9c0,0.6,0,0.6-0.3,0.7c-0.3,0.1-0.4,0.4-0.4,1.4
		c0,0.5,0,0.6-0.3,0.6c-0.2,0-0.3,0.1-0.3,1l0,1h-0.4c-0.3,0-0.4,0-0.4,0.7c0,0.6,0,0.7-0.3,0.8c-0.3,0.1-0.4,0.6-0.4,1.5
		c0,0.4,0,0.4-0.3,0.5c-0.2,0-0.3,0.1-0.3,1c0,1,0,1-0.4,1c-0.3,0-0.3,0.1-0.4,0.7c0,0.5-0.1,0.7-0.3,0.9c-0.2,0.2-0.3,0.4-0.3,1
		c0,0.7,0,0.7-0.3,0.7c-0.4,0-0.4,0.2-0.4,1.2c0,0.8,0,0.8-0.3,0.8c-0.3,0-0.4,0.2-0.4,1.2c0,0.4-0.1,0.5-0.3,0.6
		c-0.2,0.1-0.3,0.2-0.3,0.8c0,0.6,0,0.7-0.2,0.7c-0.3,0-0.5,0.4-0.5,1.3c0,0.6,0,0.6-0.3,0.7c-0.3,0.1-0.3,0.1-0.3,1
		c0,0.9,0,0.9-0.3,1c-0.3,0-0.3,0.1-0.4,0.7c0,0.5-0.1,0.7-0.3,0.8c-0.3,0.1-0.4,0.5-0.4,1.3c0,0.5,0,0.6-0.3,0.6
		c-0.3,0.1-0.3,0.1-0.3,1c0,0.9,0,0.9-0.3,1c-0.3,0-0.3,0.1-0.4,0.7c0,0.5-0.1,0.7-0.3,1c-0.2,0.2-0.3,0.4-0.3,0.7
		c0,0.6-0.1,0.9-0.4,1c-0.3,0.1-0.3,0.2-0.3,1c0,0.9,0,0.9-0.3,0.9c-0.4,0-0.4,0.2-0.4,1.2c0,0.8,0,0.8-0.3,0.8
		c-0.3,0-0.3,0-0.3,0.6c0,0.5,0,0.7-0.2,0.7c-0.3,0.1-0.5,0.5-0.5,1.3c0,0.6,0,0.6-0.3,0.6c-0.3,0-0.4,0.5-0.4,1.6
		c0,0.4,0,0.5-0.3,0.5c-0.3,0-0.3,0-0.3,0.7c0,0.5,0,0.7-0.2,0.7c-0.3,0-0.5,0.6-0.5,1.3c0,0.5,0,0.6-0.3,0.6
		c-0.2,0-0.3,0.1-0.3,0.9c0,0.9,0,0.9-0.4,1c-0.3,0.1-0.3,0.1-0.4,0.9c0,0.8-0.1,0.9-0.3,1c-0.3,0.1-0.4,0.4-0.4,1
		c0,0.4,0,0.4-0.2,0.4c-0.3,0-0.4,0.2-0.4,1.1c0,0.7,0,0.8-0.2,0.8c-0.4,0-0.5,0.3-0.5,1.2c0,0.8,0,0.9-0.3,0.9
		c-0.3,0-0.3,0-0.3,0.8v0.8h6.3c5.5,0,6.3,0,6.3-0.2c0-0.1,0.1-0.2,0.3-0.2c0.3,0,0.4-0.2,0.4-1.2c0-0.5,0.1-0.7,0.3-0.8
		c0.2-0.1,0.3-0.2,0.3-0.7c0-0.5,0-0.6,0.3-0.7c0.3-0.1,0.4-0.4,0.4-1.3c0-0.6,0-0.7,0.3-0.7c0.3,0,0.4-0.2,0.4-1.2
		c0-0.6,0-0.7,0.3-0.7c0.3-0.1,0.3-0.1,0.3-0.8c0-0.6,0-0.7,0.2-0.8c0.3-0.1,0.5-0.5,0.5-1.3c0-0.5,0-0.6,0.3-0.6
		c0.2,0,0.3-0.1,0.3-0.9c0-0.9,0-0.9,0.4-1c0.3-0.1,0.3-0.1,0.4-0.9c0-0.8,0.1-0.9,0.4-1c0.3-0.1,0.3-0.2,0.3-0.8
		c0-0.5,0-0.6,0.2-0.6c0.3,0,0.4-0.4,0.4-1.2c0-0.6,0-0.7,0.2-0.7c0.3,0,0.5-0.4,0.5-1.2c0-0.8,0-0.8,0.3-0.8c0.3,0,0.3,0,0.3-0.7
		c0-0.6,0-0.7,0.4-1c0.3-0.3,0.4-0.4,0.4-1c0-0.6,0-0.7,0.3-0.7c0.3-0.1,0.4-0.5,0.4-1.5l0-0.5l6.9,0l6.9,0l0-0.3
		c0-0.3,0.1-0.3,1-0.3c0.9,0,1,0,1.3-0.4c0.3-0.2,0.5-0.4,0.8-0.4c0.6,0,0.9-0.1,1-0.4c0.1-0.2,0.2-0.3,0.4-0.3
		c0.2,0,0.4-0.1,0.4-0.3c0.1-0.2,0.2-0.3,0.5-0.3c0.5,0,0.7-0.2,0.7-0.5c0-0.2,0.1-0.2,0.3-0.2c0.2,0,0.3-0.1,0.3-0.3
		c0-0.2,0.1-0.3,0.3-0.3c0.3,0,0.3-0.1,0.4-0.4c0-0.2,0.1-0.3,0.4-0.4c0.2,0,0.3-0.1,0.4-0.4c0-0.3,0.1-0.3,0.3-0.3
		c0.2,0,0.3-0.1,0.3-0.3c0-0.2,0.1-0.3,0.4-0.4c0.3-0.1,0.4-0.1,0.4-0.4c0-0.2,0.1-0.3,0.3-0.3c0.2,0,0.3-0.1,0.3-0.7
		c0-0.6,0.1-0.6,0.4-0.7c0.3,0,0.3-0.1,0.4-0.7c0-0.4,0.1-0.6,0.2-0.6c0.4,0,0.5-0.2,0.6-1c0.1-0.7,0.1-0.8,0.3-0.9
		c0.2-0.1,0.3-0.2,0.3-0.8c0-0.6,0-0.7,0.2-0.7c0.3,0,0.5-0.4,0.5-1.2c0-0.6,0-0.6,0.3-0.7c0.3-0.1,0.4-0.4,0.4-1.3
		c0-0.6,0-0.7,0.3-0.7c0.2,0,0.3-0.1,0.3-0.7c0-0.6,0.1-0.7,0.4-1.1c0.3-0.3,0.4-0.5,0.4-0.9c0-0.5,0-0.6,0.3-0.7
		c0.3-0.1,0.3-0.2,0.3-1c0-0.9,0-0.9,0.3-0.9c0.3,0,0.3,0,0.4-1c0-1,0-1,0.4-1c0.3,0,0.3-0.1,0.4-0.7c0-0.5,0.1-0.7,0.3-0.8
		c0.2-0.2,0.3-0.4,0.3-1c0-0.7,0.1-0.8,0.3-0.8c0.3,0,0.5-0.4,0.5-1.3c0-0.7,0-0.7,0.3-0.7c0.3,0,0.3,0,0.3-0.9v-0.9l0.4-0.1
		c0.3-0.1,0.4-0.1,0.4-0.7c0-0.5,0-0.7,0.2-0.7c0.3-0.1,0.5-0.6,0.5-1.4c0-0.5,0-0.6,0.3-0.6c0.2,0,0.3-0.1,0.3-1
		c0-0.8,0.1-0.9,0.2-0.9c0.4,0,0.5-0.3,0.5-1.2c0-0.8,0-0.9,0.3-0.9c0.3,0,0.3,0,0.3-0.7c0-0.6,0-0.7,0.3-0.7c0.3,0,0.4-0.4,0.4-1.2
		c0-0.5,0-0.6,0.3-0.7c0.3,0,0.4-0.4,0.4-1.3c0-0.6,0-0.7,0.3-0.7c0.3,0,0.3,0,0.3-0.8c0-0.8,0.2-1.2,0.6-1.2c0.1,0,0.1-0.2,0.1-0.7
		c0-0.5,0-0.7,0.2-0.7c0.3-0.1,0.4-0.3,0.4-1.3c0-1,0-1,0.4-1.2l0.4-0.2l0-1.8c0-2.2-0.1-2.5-0.4-2.6c-0.2-0.1-0.3-0.2-0.3-0.7
		c0-0.6-0.1-0.7-0.3-0.7c-0.2,0-0.3-0.1-0.3-0.4c0-0.6-0.1-0.9-0.4-0.9c-0.2,0-0.3-0.2-0.3-0.4c0-0.2-0.1-0.3-0.3-0.3
		c-0.2,0-0.4-0.1-0.6-0.4c-0.2-0.2-0.4-0.4-0.7-0.4c-0.2,0-0.4-0.1-0.4-0.2c0-0.2-1.6-0.2-13.6-0.2h-13.6V1 M185.5,0.7
		c0,0.5,0,0.5-0.3,0.6c-0.3,0-0.3,0.1-0.4,0.9c0,0.8-0.1,0.9-0.3,1c-0.2,0-0.3,0.1-0.3,0.7c-0.1,0.5-0.2,0.8-0.4,1
		c-0.3,0.3-0.3,0.4-0.3,1c0,0.7,0,0.7-0.3,0.7c-0.3,0-0.4,0.4-0.4,1.4c0,0.4,0,0.5-0.3,0.5c-0.2,0-0.3,0.1-0.3,1c0,1,0,1-0.4,1
		c-0.3,0-0.3,0.1-0.4,0.7c0,0.5-0.1,0.7-0.3,0.8c-0.3,0.2-0.5,0.8-0.5,1.4c0,0.3-0.1,0.4-0.3,0.5c-0.2,0.1-0.3,0.2-0.3,1
		c0,0.9,0,0.9-0.3,0.9c-0.4,0-0.4,0.2-0.4,1.2c0,0.8,0,0.8-0.3,0.8c-0.3,0-0.3,0-0.3,0.7c0,0.5,0,0.7-0.2,0.7
		c-0.3,0-0.5,0.6-0.5,1.3c0,0.5,0,0.6-0.3,0.6c-0.3,0-0.4,0.4-0.4,1.4c0,0.6,0,0.6-0.3,0.6c-0.3,0-0.3,0-0.3,0.9c0,0.9,0,0.9-0.3,1
		c-0.3,0-0.3,0.1-0.4,0.7c0,0.5-0.1,0.7-0.3,0.9c-0.2,0.2-0.3,0.4-0.3,1c-0.1,0.7-0.1,0.8-0.3,0.9c-0.4,0.1-0.4,0.2-0.4,1.1
		c0,0.7,0,0.8-0.2,0.8c-0.3,0-0.5,0.4-0.5,1.3c0,0.7,0,0.7-0.3,0.7c-0.3,0-0.3,0-0.3,0.7c0,0.6,0,0.7-0.2,0.8
		c-0.3,0.1-0.5,0.5-0.5,1.3c0,0.5,0,0.6-0.3,0.6c-0.3,0.1-0.3,0.1-0.3,1c0,0.9,0,0.9-0.3,1c-0.3,0-0.3,0-0.4,1c0,1,0,1-0.4,1
		c-0.3,0-0.3,0.1-0.4,0.7c0,0.5-0.1,0.7-0.2,0.7c-0.2,0-0.4,0.5-0.4,1.3c0,0.6,0,0.6-0.2,0.6c-0.3,0-0.5,0.4-0.5,1.2
		c0,0.8,0,0.8-0.3,0.8c-0.3,0-0.3,0-0.3,0.9c0,0.9,0,0.9-0.3,1c-0.3,0-0.3,0.1-0.4,0.7c0,0.6-0.1,0.7-0.3,0.8
		c-0.3,0.1-0.4,0.6-0.4,1.4c0,0.4,0,0.5-0.3,0.5c-0.2,0-0.3,0.1-0.3,1c0,0.9,0,0.9-0.4,1c-0.3,0-0.3,0-0.4,1c0,0.9,0,1-0.3,1
		c-0.3,0-0.3,0.1-0.4,0.7c-0.1,0.5-0.1,0.7-0.3,0.7c-0.2,0-0.4,0.5-0.4,1.3c0,0.6,0,0.6-0.2,0.6c-0.3,0-0.5,0.4-0.5,1.3
		c0,0.7,0,0.7-0.3,0.7c-0.3,0-0.3,0-0.3,1v1h-0.4c-0.4,0-0.4,0-0.4,0.7c0,0.6,0,0.7-0.2,0.7c-0.3,0.1-0.5,0.7-0.5,1.4
		c0,0.4,0,0.5-0.3,0.5c-0.2,0-0.3,0.1-0.3,1c0,1,0,1-0.4,1c-0.3,0-0.3,0.1-0.4,0.9c0,0.8-0.1,0.9-0.3,1c-0.2,0-0.3,0.1-0.3,0.7
		c0,0.5-0.1,0.7-0.3,0.7c-0.3,0.1-0.5,0.5-0.5,1.3c0,0.6,0,0.6-0.3,0.6c-0.3,0-0.4,0.4-0.4,1.4c0,0.4,0,0.5-0.3,0.5
		c-0.2,0-0.3,0.1-0.3,1c0,1,0,1-0.4,1c-0.3,0-0.3,0.1-0.4,0.7c0,0.5-0.1,0.7-0.2,0.7c-0.3,0-0.4,0.4-0.4,1.2c0,0.6,0,0.7-0.2,0.7
		c-0.4,0-0.5,0.3-0.5,1.2c0,0.8,0,0.9-0.3,0.9c-0.3,0-0.4,0.2-0.4,1.3c0,0.7,0,0.7-0.3,0.7c-0.3,0-0.3,0-0.3,0.5v0.5h6.7h6.7v-0.8
		c0-0.8,0-0.8,0.3-0.8c0.3,0,0.3,0,0.3-0.7c0-0.6,0-0.7,0.3-0.8c0.3-0.1,0.4-0.4,0.4-1.3c0-0.4,0-0.5,0.3-0.6
		c0.3-0.1,0.4-0.4,0.4-1.4c0-0.5,0-0.6,0.3-0.6c0.2,0,0.3-0.1,0.3-1l0-1h0.4c0.3,0,0.4,0,0.4-0.7c0-0.6,0-0.7,0.2-0.8
		c0.1-0.1,0.2-0.2,0.2-0.3c0-0.1,0.1-0.2,0.1-0.2s0.1-0.3,0.1-0.7c0-0.6,0-0.7,0.2-0.7c0.3,0,0.4-0.2,0.4-1.2c0-0.8,0-0.8,0.3-0.8
		c0.4,0,0.4-0.2,0.4-1.1c0-0.7,0-0.8,0.3-0.8c0.2,0,0.3-0.1,0.3-0.8c0-0.5,0.1-0.7,0.2-0.7c0.3,0,0.5-0.6,0.5-1.3
		c0-0.5,0-0.6,0.3-0.6c0.3,0,0.4-0.4,0.4-1.2c0-0.5,0-0.6,0.3-0.7c0.3-0.1,0.3-0.1,0.3-1c0-0.9,0-0.9,0.3-0.9c0.3,0,0.4-0.2,0.4-0.9
		c0-0.4,0.1-0.6,0.3-0.8c0.2-0.3,0.3-0.4,0.3-1c0-0.6,0-0.6,0.3-0.7c0.3-0.1,0.4-0.3,0.4-1.3c0-0.6,0-0.7,0.2-0.7
		c0.3,0,0.5-0.4,0.5-1.3c0-0.7,0-0.7,0.3-0.7c0.3,0,0.3,0,0.3-0.8c0-0.8,0.2-1.2,0.6-1.2c0.1,0,0.1-0.2,0.1-0.6c0-0.5,0-0.6,0.3-0.7
		c0.2-0.1,0.3-0.2,0.3-1c0-0.9,0-0.9,0.4-1c0.3,0,0.3-0.1,0.4-1c0-0.8,0.1-0.9,0.3-0.9c0.3,0,0.5-0.3,0.5-1.1c0-0.7,0.1-0.8,0.3-0.9
		c0.2-0.1,0.3-0.2,0.3-0.8c0-0.6,0-0.7,0.3-0.7c0.3,0,0.4-0.4,0.4-1.3c0-0.6,0-0.6,0.3-0.7c0.3-0.1,0.3-0.1,0.3-1c0-0.9,0-0.9,0.3-1
		c0.3,0,0.3,0,0.4-1c0-1,0-1,0.4-1c0.3,0,0.3-0.1,0.4-0.7c0-0.5,0.1-0.7,0.2-0.7c0.3,0,0.4-0.4,0.4-1.2c0-0.6,0-0.7,0.2-0.7
		c0.3,0,0.5-0.4,0.5-1.2c0-0.7,0-0.8,0.3-0.8c0.4,0,0.4-0.2,0.4-1.2c0-0.8,0-0.8,0.3-0.8c0.3,0,0.3,0,0.3-0.7c0-0.6,0-0.7,0.2-0.8
		c0.3-0.1,0.5-0.5,0.5-1.3c0-0.5,0-0.6,0.3-0.6c0.2,0,0.3-0.1,0.3-0.9c0-0.9,0-0.9,0.4-1c0.3-0.1,0.4-0.1,0.4-1c0-0.9,0-0.9,0.3-0.9
		c0.3,0,0.4-0.2,0.4-0.9c0-0.4,0.1-0.6,0.3-0.8c0.2-0.2,0.3-0.4,0.3-1c0.1-0.7,0.1-0.8,0.3-0.8c0.3,0,0.4-0.5,0.4-1.4
		c0-0.4,0-0.5,0.3-0.5c0.2,0,0.3-0.1,0.3-1c0-1,0-1,0.4-1c0.3,0,0.3-0.1,0.4-0.7c0-0.6,0.1-0.7,0.4-1.1c0.3-0.3,0.4-0.5,0.4-1
		c0-0.3,0-0.6,0.1-0.6c0.3,0,0.5-0.4,0.5-1.2c0-0.8,0-0.8,0.3-0.8c0.3,0,0.4-0.2,0.4-1.3c0-0.7,0-0.7,0.3-0.7c0.3,0,0.3,0,0.3-0.7
		c0-0.6,0-0.7,0.4-1c0.3-0.3,0.4-0.4,0.4-1c0-0.6,0-0.6,0.2-0.6c0.3,0,0.3-0.1,0.5-1.1c0.1-0.7,0.1-0.8,0.3-0.8
		c0.3,0,0.3-0.1,0.3-1.2V0.2h-6.3h-6.3V0.7 M216.7,0.3c0,0.1-0.1,0.2-0.3,0.2c-0.2,0-0.3,0.1-0.3,1c0,1,0,1-0.4,1
		c-0.3,0-0.3,0-0.4,1c0,0.9,0,1-0.3,1c-0.3,0-0.4,0.3-0.4,1.1c0,0.2-0.1,0.5-0.3,0.7c-0.2,0.3-0.3,0.4-0.3,0.9c0,0.6,0,0.6-0.3,0.7
		c-0.3,0-0.4,0.4-0.4,1.3c0,0.6,0,0.6-0.3,0.7c-0.3,0.1-0.3,0.1-0.3,1c0,0.9,0,0.9-0.3,1c-0.3,0-0.3,0.1-0.4,0.9
		c0,0.7-0.1,0.9-0.3,1c-0.4,0.2-0.4,0.3-0.4,0.9c0,0.4,0,0.6-0.2,0.6c-0.3,0-0.4,0.4-0.4,1.2c0,0.6,0,0.7-0.2,0.7
		c-0.3,0-0.5,0.4-0.5,1.2c0,0.8,0,0.8-0.3,0.8c-0.3,0-0.3,0-0.3,1v1h-0.4c-0.4,0-0.4,0-0.4,0.7c0,0.6,0,0.7-0.2,0.8
		c-0.3,0.1-0.5,0.7-0.5,1.3c0,0.4,0,0.5-0.3,0.5c-0.2,0-0.3,0.1-0.3,1c0,1,0,1-0.4,1c-0.3,0-0.3,0.1-0.4,0.9c0,0.8-0.1,0.9-0.3,1
		c-0.2,0-0.3,0.1-0.3,0.7c0,0.6-0.1,0.7-0.4,1c-0.3,0.3-0.4,0.4-0.4,1c0,0.6,0,0.7-0.3,0.7c-0.3,0-0.4,0.4-0.4,1.3
		c0,0.5-0.1,0.6-0.3,0.6c-0.3,0.1-0.3,0.1-0.3,1c0,0.9,0,0.9-0.3,1c-0.3,0-0.3,0-0.4,1c0,1,0,1-0.3,1c-0.2,0-0.3,0.1-0.3,0.3
		c0,0.6-0.1,1.1-0.3,1.1c-0.2,0-0.4,0.5-0.4,1.2c0,0.6,0,0.6-0.3,0.7c-0.3,0-0.4,0.4-0.4,1.3c0,0.6,0,0.7-0.3,0.7
		c-0.3,0-0.3,0-0.3,1c0,1,0,1-0.4,1c-0.3,0-0.3,0.1-0.3,0.7c0,0.6,0,0.7-0.2,0.8c-0.2,0.1-0.5,0.9-0.5,1.5c0,0.2-0.1,0.3-0.3,0.4
		c-0.2,0.1-0.3,0.2-0.3,1c0,0.8-0.1,0.9-0.3,0.9c-0.4,0.1-0.4,0.3-0.4,1.1c0,0.7,0,0.8-0.3,0.8c-0.2,0-0.3,0.1-0.3,0.8
		c0,0.7-0.1,0.8-0.4,1.1c-0.3,0.2-0.4,0.3-0.4,0.9c0,0.5,0,0.6-0.2,0.6c-0.3,0-0.3,0.1-0.4,1c-0.1,0.8-0.1,0.8-0.4,0.9
		c-0.3,0.1-0.3,0.1-0.3,1c0,0.9,0,0.9-0.3,0.9c-0.4,0-0.4,0.2-0.4,1.2c0,0.8,0,0.8-0.3,0.8c-0.3,0-0.3,0-0.3,0.7
		c0,0.6,0,0.7-0.2,0.8c-0.3,0.1-0.5,0.5-0.5,1.3c0,0.5,0,0.6-0.3,0.6c-0.3,0-0.4,0.4-0.4,1.4c0,0.6,0,0.6-0.3,0.6
		c-0.3,0-0.3,0-0.3,0.9V69l-0.4,0.1c-0.3,0.1-0.4,0.1-0.4,0.8c0,0.6,0,0.7-0.3,1c-0.2,0.2-0.3,0.4-0.3,1c0,0.7,0,0.7-0.3,0.7
		c-0.3,0-0.4,0.2-0.4,1.2c0,0.6,0,0.7-0.3,0.7c-0.3,0-0.4,0.4-0.4,1.3c0,0.6,0,0.7-0.3,0.7c-0.3,0-0.3,0-0.3,0.8
		c0,0.8,0,0.8-0.4,1.1c-0.3,0.2-0.4,0.3-0.4,0.9c0,0.5,0,0.6-0.2,0.6c-0.3,0-0.4,0.2-0.4,1.1c0,0.7,0,0.8-0.2,0.8
		c-0.4,0-0.5,0.3-0.5,1.2c0,0.8,0,0.9-0.3,0.9c-0.3,0-0.4,0.2-0.4,0.7v0.3h14.7c13,0,14.7,0,14.7-0.2c0-0.1,0.2-0.2,0.7-0.2
		c0.6,0,0.7,0,0.7-0.3c0-0.3,0-0.3,0.5-0.3c0.6,0,0.8-0.1,0.8-0.4c0-0.2,0.1-0.3,0.3-0.3c0.5,0,1-0.2,1-0.5c0-0.2,0.1-0.2,0.4-0.2
		c0.3,0,0.4,0,0.4-0.3c0-0.2,0.1-0.3,0.3-0.3c0.3,0,0.3-0.1,0.4-0.4c0-0.3,0.1-0.3,0.3-0.3c0.2,0,0.3-0.1,0.3-0.3
		c0-0.2,0.1-0.3,0.3-0.3c0.3,0,0.3-0.1,0.4-0.4c0-0.2,0.1-0.3,0.4-0.4c0.2,0,0.3-0.1,0.4-0.4c0-0.2,0.1-0.3,0.3-0.4
		c0.2,0,0.3-0.1,0.3-0.7c0-0.6,0.1-0.6,0.4-0.7c0.3,0,0.3-0.1,0.4-0.7c0-0.6,0.1-0.6,0.4-0.7c0.3,0,0.3-0.1,0.4-0.7
		c0-0.5,0.1-0.7,0.2-0.7c0.3,0,0.4-0.4,0.4-1.2c0-0.6,0-0.7,0.3-0.8c0.3-0.1,0.4-0.4,0.4-1.4c0-0.5,0-0.6,0.3-0.6
		c0.2,0,0.3-0.1,0.3-1c0-1,0-1,0.4-1c0.3,0,0.3-0.1,0.4-0.7c0-0.8,0.2-1.2,0.5-1.3c0.2,0,0.2-0.2,0.2-0.7c0-0.5,0-0.7,0.2-0.7
		c0.3,0,0.4-0.5,0.4-1.3c0-0.6,0-0.6,0.2-0.6c0.3,0,0.5-0.4,0.5-1.3c0-0.6,0-0.6,0.3-0.7c0.3-0.1,0.3-0.1,0.3-1v-0.9l0.4-0.1
		c0.3-0.1,0.4-0.1,0.4-0.9c0-0.8,0.1-0.9,0.4-1c0.3-0.1,0.3-0.2,0.3-0.8c0-0.5,0-0.7,0.2-0.7c0.3-0.1,0.4-0.4,0.4-1.2
		c0-0.6,0-0.6,0.3-0.7c0.3-0.1,0.4-0.4,0.4-1.4c0-0.5,0-0.6,0.3-0.6c0.2,0,0.3-0.1,0.3-1c0-1,0-1,0.4-1c0.3,0,0.3-0.1,0.4-1
		c0-1,0-1,0.4-1c0.3,0,0.3-0.1,0.4-0.7c0-0.5,0.1-0.7,0.3-0.9c0.2-0.2,0.3-0.4,0.3-1c0-0.6,0-0.7,0.2-0.7c0.3,0,0.4-0.2,0.5-1.1
		c0.1-0.8,0.1-0.8,0.3-0.9c0.3,0,0.3-0.1,0.3-1v-0.9l0.4-0.1l0.4-0.1v-1c0-0.9,0-1,0.3-1c0.3,0,0.4-0.2,0.4-0.9
		c0-0.3,0.1-0.6,0.2-0.6c0.3-0.2,0.4-0.6,0.4-1.2c0-0.5,0-0.6,0.3-0.7c0.3-0.1,0.4-0.4,0.4-1.4c0-0.5,0-0.6,0.3-0.6
		c0.2,0,0.3-0.1,0.3-1c0-1,0-1,0.4-1c0.3,0,0.3,0,0.4-1c0-1,0-1,0.4-1c0.3,0,0.3-0.1,0.4-0.7c0-0.6,0.1-0.7,0.3-1
		c0.2-0.2,0.3-0.4,0.3-0.9c0-0.6,0-0.7,0.3-0.7c0.3-0.1,0.4-0.4,0.4-1.4c0-0.5,0-0.6,0.3-0.6c0.3,0,0.4-0.4,0.4-1.4
		c0-0.4,0-0.5,0.3-0.6c0.3-0.1,0.3-0.1,0.3-1c0-0.9,0-0.9,0.3-0.9c0.3,0,0.4-0.2,0.4-1.2c0-0.5,0.1-0.7,0.3-0.8
		c0.2-0.1,0.3-0.2,0.3-0.8c0-0.6,0-0.7,0.3-0.7c0.3,0,0.4-0.4,0.4-1.2c0-0.5,0-0.6,0.3-0.7c0.3,0,0.4-0.4,0.4-1.3
		c0-0.6,0-0.7,0.3-0.7c0.2,0,0.3-0.1,0.3-1c0-0.8,0.1-0.9,0.2-0.9c0.4,0,0.5-0.3,0.5-1.5c0-1.2,0-1.2,0.3-1.3c0.3,0,0.3-0.1,0.3-1.3
		s0-1.2-0.3-1.3c-0.3,0-0.3-0.1-0.3-1c0-1.3-0.1-1.6-0.4-1.7c-0.2,0-0.3-0.1-0.3-0.4c0-0.3-0.1-0.3-0.3-0.3c-0.2,0-0.3-0.1-0.3-0.3
		c0-0.2-0.1-0.3-0.3-0.4c-0.2-0.1-0.4-0.2-0.4-0.4c-0.1-0.2-0.2-0.3-0.4-0.3c-0.2,0-0.3-0.1-0.3-0.3c0-0.3,0-0.3-0.5-0.3
		c-0.3,0-0.5,0-0.5-0.2c0-0.2-1.6-0.2-13.8-0.2C218.6,0.2,216.7,0.2,216.7,0.3 M282.8,1.6v1.5l-10.7,0l-10.7,0l0,1.2
		c0,0.9,0,1.3,0.1,1.3c0.1,0.1,4.9,0.1,10.7,0.1l10.5,0v1.7c0,2.1,0,2.1,1.3,2.2l1,0V5V0.2h-1.1h-1.1V1.6 M48.9,11.2
		c0,0.6-0.1,0.7-0.3,0.8c-0.2,0.1-0.3,0.2-0.3,1c0,0.8,0,0.9-0.4,0.9c-0.3,0-0.3,0.1-0.4,1c0,1,0,1-0.4,1c-0.3,0-0.3,0.1-0.4,0.7
		c0,0.5-0.1,0.6-0.2,0.7c-0.3,0.1-0.4,0.3-0.4,1.1c0,0.8,0,0.8-0.3,0.8c-0.3,0-0.3,0.1-0.4,0.8c0,0.8-0.2,1.2-0.5,1.2
		c-0.1,0-0.2,0.2-0.2,0.7c0,0.5,0,0.7-0.2,0.7c-0.4,0-0.5,0.3-0.5,1.2c0,0.8,0,0.9-0.3,0.9c-0.3,0-0.4,0.2-0.4,0.9
		c0,0.4-0.1,0.6-0.3,0.8c-0.2,0.3-0.3,0.4-0.3,1c0,0.6,0,0.6-0.3,0.6c-0.4,0-0.4,0.2-0.4,1.2c0,0.8,0,0.8-0.3,0.8
		c-0.3,0-0.3,0-0.3,0.7c0,0.6,0,0.7-0.3,0.8c-0.3,0.1-0.4,0.4-0.4,1.3c0,0.6,0,0.6-0.3,0.6c-0.3,0-0.4,0.2-0.4,1.2
		c0,0.6,0,0.7-0.3,0.7c-0.2,0-0.3,0.1-0.3,0.7c0,0.6-0.1,0.7-0.3,0.7C39.1,36.6,39,37,39,37.9c0,0.5,0,0.6-0.3,0.6
		c-0.3,0-0.4,0.5-0.4,1.5c0,0.3-0.1,0.4-0.3,0.4c-0.2,0-0.3,0.1-0.3,0.7l0,0.6h-4.3H29v-0.6c0-0.6,0-0.6,0.3-0.7
		c0.3-0.1,0.4-0.4,0.4-1.4c0-0.5,0-0.6,0.3-0.6c0.3,0,0.3,0,0.3-0.7c0-0.7,0-0.7,0.4-1c0.3-0.3,0.4-0.4,0.4-0.9c0-0.6,0-0.6,0.3-0.7
		c0.2,0,0.3-0.1,0.3-0.9c0-0.9,0-0.9,0.4-1c0.3-0.1,0.4-0.1,0.4-0.7c0-0.6,0-0.7,0.3-0.8c0.3-0.1,0.4-0.6,0.4-1.4
		c0-0.4,0-0.5,0.3-0.5c0.2,0,0.3-0.1,0.3-0.9c0-0.9,0-0.9,0.4-1c0.3-0.1,0.4-0.1,0.4-0.7c0-0.5,0-0.6,0.3-0.7c0.2-0.1,0.3-0.2,0.3-1
		c0-0.8,0-0.8,0.4-0.9c0.3-0.1,0.4-0.1,0.4-0.8c0-0.6,0-0.7,0.4-1c0.3-0.3,0.4-0.4,0.4-1c0-0.6,0-0.6,0.3-0.7c0.2,0,0.3-0.1,0.3-1
		c0-0.8,0.1-0.9,0.2-0.9c0.3,0,0.5-0.3,0.5-0.9c0-0.3,0-0.6,0.1-0.6c0.3,0,0.5-0.4,0.5-1.1c0-0.7,0-0.7,0.4-0.9
		c0.4-0.1,0.4-0.1,0.4-1c0-0.9,0-0.9,0.3-0.9c0.3,0,0.3-0.1,0.4-0.7c0-0.6,0.1-0.7,0.3-0.7c0.3,0,0.4-0.2,0.4-1.1v-0.8h4.4l4.4,0
		L48.9,11.2 M100.9,11.2c0,0.6,0,0.7-0.2,0.8c-0.3,0.1-0.5,0.6-0.5,1.3c0,0.5,0,0.6-0.3,0.6c-0.3,0-0.4,0.4-0.4,1.4
		c0,0.6,0,0.6-0.3,0.6c-0.3,0-0.3,0-0.3,0.7c0,0.6,0,0.7-0.4,1.1c-0.3,0.3-0.4,0.4-0.4,0.9c0,0.5,0,0.6-0.3,0.6
		c-0.2,0-0.3,0.1-0.3,1c0,1,0,1-0.4,1c-0.3,0-0.3,0.1-0.4,0.7c0,0.6-0.1,0.7-0.4,1c-0.3,0.3-0.4,0.4-0.4,1c0,0.6,0,0.6-0.3,0.7
		c-0.2,0-0.3,0.1-0.3,1c0,1,0,1-0.4,1c-0.3,0-0.3,0.1-0.4,0.9c-0.1,0.7-0.1,0.8-0.3,0.9c-0.2,0.1-0.3,0.3-0.3,0.8
		c-0.1,0.5-0.1,0.7-0.3,0.8c-0.2,0.1-0.3,0.2-0.3,1c0,0.8-0.1,0.9-0.3,0.9c-0.4,0.1-0.4,0.3-0.4,1.1c0,0.8,0,0.8-0.3,0.8
		c-0.3,0-0.3,0-0.3,0.7c0,0.6,0,0.7-0.3,0.7c-0.3,0-0.4,0.4-0.4,1.2c0,0.5,0,0.6-0.3,0.7c-0.3,0-0.4,0.4-0.4,1.4
		c0,0.6,0,0.6-0.3,0.6c-0.3,0-0.3,0-0.3,0.7c0,0.6,0,0.7-0.2,0.8c-0.1,0-0.3,0.2-0.3,0.3c-0.1,0.2-0.1,0.2-4.8,0.2
		c-4.6,0-4.7,0-4.4-0.2c0.2-0.2,0.3-0.3,0.3-1c0-0.6,0.1-0.8,0.2-0.8c0.4,0,0.5-0.3,0.5-1.2c0-0.8,0-0.9,0.3-0.9
		c0.3,0,0.4-0.2,0.4-0.9c0-0.3,0.1-0.6,0.2-0.6c0.3-0.2,0.4-0.6,0.4-1.2c0-0.5,0-0.6,0.2-0.6c0.3,0,0.5-0.4,0.5-1.3
		c0-0.7,0-0.7,0.3-0.7c0.3,0,0.3,0,0.3-0.8c0-0.6,0-0.8,0.2-0.8c0.1,0,0.2-0.1,0.3-0.2c0-0.1,0.1-0.2,0.2-0.2c0.1,0,0.1-0.3,0.1-0.6
		c0-0.6,0-0.6,0.3-0.7c0.3,0,0.4-0.4,0.4-1.3c0-0.6,0-0.7,0.3-0.7c0.3,0,0.3,0,0.3-0.7c0-0.6,0-0.7,0.4-1c0.3-0.3,0.4-0.4,0.4-1
		c0-0.6,0-0.6,0.3-0.7c0.2,0,0.3-0.1,0.3-0.9c0-0.9,0-0.9,0.4-1c0.3-0.1,0.4-0.1,0.4-0.8c0-0.6,0-0.7,0.4-1c0.3-0.3,0.4-0.4,0.4-1
		c0-0.6,0-0.6,0.3-0.7c0.2,0,0.3-0.1,0.3-1c0-0.8,0.1-0.9,0.2-0.9c0.3,0,0.5-0.3,0.5-0.9c0-0.5,0.1-0.7,0.3-0.9
		c0.2-0.2,0.3-0.4,0.3-1c0-0.7,0-0.7,0.3-0.7c0.4,0,0.4-0.2,0.4-1.1v-0.8h4.7h4.7V11.2 M152.1,11.2c0,0.6-0.1,0.7-0.3,0.8
		c-0.2,0.1-0.3,0.2-0.3,1c0,0.7-0.1,0.9-0.2,0.9c-0.4,0-0.5,0.3-0.5,1.2c0,0.8,0,0.9-0.3,0.9c-0.3,0-0.3,0-0.3,0.6
		c0,0.5-0.1,0.7-0.4,1c-0.3,0.3-0.4,0.5-0.4,1c0,0.6,0,0.6-0.3,0.7c-0.3,0.1-0.4,0.5-0.4,1.5c0,0.5,0,0.5-0.3,0.5
		c-0.3,0-0.3,0-0.3,1v1l-0.4,0.1c-0.3,0.1-0.4,0.1-0.4,0.8c0,0.6,0,0.7-0.2,0.8c-0.2,0.1-0.5,0.8-0.5,1.5c0,0.3-0.1,0.4-0.3,0.4
		c-0.2,0-0.3,0.1-0.3,0.9c0,0.9,0,0.9-0.4,1c-0.3,0.1-0.4,0.1-0.4,1c0,0.9,0,0.9-0.3,0.9c-0.3,0-0.3,0-0.3,0.7c0,0.6,0,0.7-0.3,0.7
		c-0.3,0-0.4,0.4-0.4,1.2c0,0.5,0,0.6-0.3,0.7c-0.3,0.1-0.4,0.5-0.4,1.5c0,0.4,0,0.5-0.3,0.5c-0.2,0-0.3,0.1-0.3,0.7
		c0,0.6-0.1,0.7-0.4,1c-0.3,0.3-0.3,0.4-0.3,0.9c0,0.5,0,0.6-0.3,0.7c-0.3,0.1-0.3,0.2-0.3,1c0,0.9,0,0.9-0.3,0.9
		c-0.3,0-0.3,0-0.4,1c0,0.9,0,1-0.3,1c-0.3,0-0.4,0.3-0.4,0.9c0,0.3-0.1,0.5-0.3,0.6c-0.2,0.2-0.3,0.4-0.3,1c0,0.7-0.1,0.8-0.3,0.8
		c-0.3,0-0.5,0.3-0.5,0.9v0.4h-4h-4v-0.6c0-0.6,0-0.6,0.3-0.7c0.3-0.1,0.3-0.1,0.3-0.9c0-0.8,0-0.8,0.4-1c0.3-0.1,0.4-0.2,0.4-0.8
		c0-0.6,0-0.7,0.3-0.7c0.3,0,0.4-0.4,0.4-1.2c0-0.5,0-0.6,0.3-0.7c0.3-0.1,0.3-0.1,0.3-1c0-0.9,0-0.9,0.3-1c0.3,0,0.3-0.1,0.4-0.7
		c0-0.5,0.1-0.7,0.2-0.8c0.3-0.1,0.5-0.7,0.5-1.3c0-0.4,0-0.5,0.3-0.6c0.3-0.1,0.3-0.2,0.3-1c0-0.9,0-0.9,0.3-0.9
		c0.3,0,0.4-0.2,0.4-1.2c0-0.5,0.1-0.7,0.3-0.8c0.2-0.1,0.3-0.2,0.3-0.7c0-0.6,0-0.6,0.3-0.7c0.3-0.1,0.4-0.4,0.4-1.4
		c0-0.5,0-0.6,0.3-0.6c0.3,0,0.4-0.3,0.4-1.4c0-0.6,0-0.6,0.3-0.6c0.3,0,0.3,0,0.3-0.7c0-0.6,0-0.7,0.2-0.8c0.3-0.1,0.5-0.6,0.5-1.2
		c0-0.5,0-0.6,0.3-0.6c0.2,0,0.3-0.1,0.3-0.9c0-0.9,0-0.9,0.4-1c0.3-0.1,0.3-0.1,0.4-0.9c0-0.7,0.1-0.9,0.3-1
		c0.4-0.2,0.4-0.3,0.4-0.9c0-0.4,0-0.6,0.2-0.6c0.3,0,0.4-0.4,0.4-1.2c0-0.6,0-0.7,0.3-0.8c0.4-0.1,0.4-0.3,0.4-1.1
		c0-0.8,0-0.8,0.3-0.8c0.3,0,0.3,0,0.3-0.7c0-0.6,0-0.7,0.4-1c0.3-0.3,0.4-0.4,0.4-1v-0.7h4l4,0L152.1,11.2 M234.8,11.1
		c0,0.5,0,0.7-0.2,0.7c-0.4,0-0.5,0.3-0.5,1.2c0,0.8,0,0.9-0.3,0.9c-0.3,0-0.3,0-0.5,1.6c0,0.1-0.1,0.3-0.3,0.4
		c-0.2,0.1-0.3,0.2-0.3,0.7c0,0.6,0,0.6-0.3,0.7c-0.3,0.1-0.4,0.5-0.4,1.4c0,0.4,0,0.5-0.3,0.5c-0.2,0-0.3,0.1-0.3,1c0,1,0,1-0.4,1
		c-0.3,0-0.3,0.1-0.4,1c-0.1,0.9-0.1,1-0.3,1c-0.3,0-0.4,0.3-0.4,1.3c0,0.4-0.1,0.5-0.3,0.6c-0.2,0.1-0.3,0.2-0.3,0.8
		c0,0.6,0,0.7-0.3,0.7c-0.3,0.1-0.4,0.4-0.4,1.3c0,0.4,0,0.5-0.3,0.6c-0.3,0.1-0.3,0.2-0.3,1v0.9l-0.4,0.1l-0.4,0.1v1
		c0,0.9,0,1-0.3,1c-0.3,0-0.4,0.3-0.4,1c0,0.3-0.1,0.5-0.3,0.8c-0.2,0.3-0.3,0.4-0.3,1c0,0.6,0,0.7-0.3,0.7
		c-0.3,0.1-0.4,0.5-0.4,1.4c0,0.4,0,0.5-0.3,0.5c-0.2,0-0.3,0.1-0.3,1c0,1,0,1-0.4,1c-0.3,0-0.3,0.1-0.4,1c0,0.8-0.1,0.9-0.3,1
		c-0.4,0.1-0.4,0.3-0.4,0.9c0,0.4-0.1,0.6-0.3,0.9c-0.2,0.3-0.3,0.4-0.3,1c0,0.6,0,0.7-0.3,0.7c-0.3,0-0.4,0.4-0.4,1.3
		c0,0.6,0,0.6-0.3,0.7c-0.3,0.1-0.3,0.1-0.3,0.7c0,0.9-0.1,1.2-0.4,1.2c-0.2,0-0.3,0.1-0.3,1c0,1,0,1-0.4,1c-0.3,0-0.3,0.1-0.4,0.7
		c0,0.5-0.1,0.8-0.3,1c-0.2,0.3-0.3,0.4-0.3,0.9c0,0.6,0,0.6-0.3,0.7c-0.3,0.1-0.4,0.4-0.4,1.3c0,0.6,0,0.7-0.3,0.7
		c-0.2,0-0.3,0.1-0.4,1c-0.1,0.9-0.1,1-0.4,1c-0.3,0-0.3,0-0.3,0.9c0,0.9,0,0.9-0.4,1.1c-0.3,0.1-0.4,0.2-0.4,0.7
		c0,0.5-0.1,0.7-0.3,0.9c-0.3,0.3-0.3,0.4-0.3,1c0,0.6,0,0.7-0.2,0.7c-0.3,0-0.5,0.4-0.5,1.2c0,0.7,0,0.7-0.3,0.8
		c-0.3,0.1-0.4,0.6-0.4,1.5c0,0.3-0.1,0.4-0.3,0.4c-0.2,0-0.3,0.1-0.3,1c0,1,0,1-0.4,1c-0.3,0-0.3,0.1-0.4,0.7
		c0,0.5-0.1,0.7-0.3,0.8c-0.2,0.2-0.3,0.4-0.3,1c0,0.5-0.1,0.8-0.2,0.8c-0.3,0-0.5,0.4-0.5,0.8v0.5l-4.6,0c-2.5,0-4.5,0-4.4-0.1
		c0.2-0.1,0.3-0.4,0.3-1.3c0-0.6,0-0.7,0.3-0.7c0.3,0,0.4-0.3,0.4-1.4c0-0.6,0-0.6,0.3-0.6c0.3,0,0.3,0,0.3-0.9c0-0.9,0-0.9,0.3-1
		c0.3,0,0.3-0.1,0.4-0.8c0-0.6,0.1-0.8,0.2-0.8c0.3-0.1,0.5-0.6,0.5-1.3c0-0.5,0-0.6,0.2-0.6c0.3,0,0.4-0.2,0.4-1.1
		c0-0.6,0-0.8,0.2-0.8c0.4,0,0.5-0.4,0.5-1.2c0-0.8,0-0.8,0.3-0.9c0.2,0,0.3-0.1,0.3-0.8c0-0.8,0.2-1.2,0.6-1.2
		c0.1,0,0.2-0.2,0.2-0.7c0-0.6,0-0.7,0.3-0.7c0.3,0,0.4-0.4,0.4-1.2c0-0.5,0.1-0.6,0.3-0.7c0.2-0.1,0.3-0.2,0.3-1
		c0-0.9,0-0.9,0.3-0.9c0.4,0,0.4-0.2,0.4-1.2c0-0.8,0-0.8,0.3-0.8c0.3,0,0.3,0,0.3-0.7c0-0.5,0-0.7,0.2-0.7c0.3,0,0.5-0.6,0.5-1.3
		c0-0.5,0-0.6,0.2-0.6c0.3,0,0.4-0.1,0.5-1.1c0.1-0.8,0.1-0.9,0.3-0.9c0.3,0,0.3-0.1,0.3-1c0-0.9,0-0.9,0.3-0.9
		c0.4,0,0.4-0.2,0.4-1.2c0-0.8,0-0.8,0.3-0.8c0.3,0,0.3,0,0.3-0.7c0-0.6,0-0.7,0.2-0.8c0.3-0.1,0.5-0.5,0.5-1.3c0-0.5,0-0.6,0.3-0.6
		c0.3-0.1,0.4-0.5,0.4-1.5c0-0.4,0-0.5,0.3-0.5c0.2,0,0.3-0.1,0.3-1c0-1,0-1,0.4-1c0.3,0,0.3-0.1,0.4-0.7c0-0.6,0.1-0.7,0.3-0.9
		c0.2-0.2,0.3-0.3,0.3-0.9c0-0.6,0-0.7,0.3-0.8c0.3-0.1,0.4-0.4,0.4-1.3c0-0.6,0-0.7,0.3-0.7c0.3,0,0.4-0.3,0.4-1.3
		c0-0.5,0-0.6,0.3-0.6c0.3-0.1,0.3-0.1,0.3-1c0-0.9,0-0.9,0.3-1c0.3,0,0.3-0.1,0.4-0.7c0-0.5,0.1-0.7,0.3-0.9c0.2-0.2,0.3-0.4,0.3-1
		c0.1-0.7,0.1-0.8,0.3-0.9c0.4-0.1,0.4-0.2,0.4-1.1c0-0.7,0-0.8,0.2-0.8c0.3,0,0.5-0.4,0.5-1.2c0-0.8,0-0.8,0.3-0.8
		c0.3,0,0.3,0,0.3-0.8c0-0.8,0.2-1.2,0.6-1.2c0.1,0,0.2-0.2,0.2-0.6c0-0.6,0-0.7,0.3-0.8c0.3-0.1,0.4-0.6,0.4-1.4
		c0-0.4,0-0.5,0.3-0.5c0.2,0,0.3-0.1,0.3-0.9c0-0.9,0.1-0.9,0.3-1c0.2,0,0.3-0.2,0.4-0.4l0.1-0.3h4.3h4.3V11.1 M261.4,11.8v1.3h5.3
		h5.3v1c0,1,0,1-0.4,1.4c-0.2,0.2-0.4,0.5-0.4,0.7c0,0.3,0,0.4-0.3,0.4c-0.2,0-0.3,0.1-0.3,0.3v0.3l-4.7,0l-4.7,0l0,1.3l0,1.3l5.3,0
		l5.3,0l0-0.3c0-0.2,0.1-0.3,0.6-0.3c0.3,0,0.6-0.2,0.6-0.3c0.1-0.2,0.1-0.1,0.2,0.1c0.1,0.2,0.2,0.3,0.4,0.3c0.2,0,0.3,0.1,0.3,0.3
		l0,0.3l4.6,0l4.6,0l0.1-0.3c0.1-0.2,0.2-0.3,0.4-0.3c0.7-0.1,0.8-0.1,0.8-0.4c0-0.2,0.1-0.3,0.2-0.3c0.2,0,0.2-0.5,0.2-4v-4h-11.8
		h-11.8V11.8 M282.8,13.9c0,1.8-0.1,2.6-0.4,2.7c-0.2,0-0.3,0.1-0.3,0.3l0,0.3h-3.3c-3.3,0-3.3,0-3.3-0.2c0-0.2-0.1-0.3-0.4-0.4
		c-0.3-0.1-0.4-0.2-0.4-0.7c0-0.8-0.1-1.1-0.4-1.2c-0.3-0.1-0.3-0.1-0.3-0.8v-0.7h4.4h4.4V13.9 M261.5,21.3c0,0-0.1,0.6-0.1,1.3v1.2
		h0.8c0.8,0,1.2,0.1,1.2,0.5c0,0.2,0.5,0.3,1.6,0.3l1,0v2.3v2.3h-1.4c-1.6,0-1.8,0-1.8,0.4c0,0.2-0.4,0.4-1.1,0.4h-0.3V31
		c0,1.3,0.1,1.4,0.8,1.4c0.8,0,1.1-0.1,1.1-0.4v-0.3h1.7h1.7l0.1-0.3l0.1-0.3l1.6,0c1.9,0,2.3-0.1,2.3-0.4c0-0.3,0.1-0.3,1.7-0.3
		h1.7v-0.4v-0.4h1.9h1.9l0.1-0.3c0.1-0.3,0.2-0.3,1.7-0.3l1.6,0l0-0.3l0-0.3h1.8h1.8v-1.7v-1.7h-1.5c-1.5,0-1.5,0-1.6-0.3l-0.1-0.3
		h-1.6c-1.6,0-1.6,0-1.7-0.2c-0.1-0.4-0.5-0.5-2.3-0.5c-1.6,0-1.6,0-1.6-0.3c0-0.3-0.5-0.4-2.3-0.4c-1,0-1.2,0-1.3-0.3
		c-0.2-0.3-0.3-0.3-2-0.3c-1.7,0-1.8-0.1-1.8-0.3c0-0.4-0.5-0.5-2-0.5c-1.3,0-1.4,0-1.7-0.3C263.4,21.2,261.7,21,261.5,21.3
		 M270.8,25.4c0,0.4,0.2,0.4,2.2,0.4c1.7,0,1.7,0,1.7,0.3c0,0.3,0.1,0.3,2.1,0.3c1.1,0,1.9,0.1,1.7,0.1c-0.3,0-0.4,0.1-0.4,0.3
		c0,0.3-0.1,0.3-1.7,0.3c-2,0-2.2,0-2.2,0.4v0.3h-1.7c-1.7,0-2.3,0.1-2.3,0.4c0,0.1-0.2,0.2-0.7,0.2h-0.7v-1.7v-1.7h1
		C270.7,25.1,270.8,25.1,270.8,25.4 M261.4,34.9c0,1.7-0.7,1.5,6.4,1.6c7,0,7.5,0,8-0.4c0.2-0.2,0.4-0.3,0.8-0.3
		c0.4,0,0.5,0,0.4,0.1c-0.1,0.1-0.1,0.2-0.1,0.4c0,0.2-0.1,0.2-0.9,0.2c-0.9,0-1,0-1,0.3c-0.1,0.3-0.1,0.3-1,0.3c-0.9,0-0.9,0-1,0.4
		c-0.1,0.4-0.1,0.4-1.1,0.4c-0.9,0-0.9,0-0.9,0.3c0,0.3,0,0.3-0.7,0.3c-1,0-1.3,0.1-1.3,0.4c0,0.3,0,0.3-1,0.3c-0.8,0-1,0-1,0.2
		c0,0.4-0.4,0.6-1.2,0.6c-0.8,0-1.3,0.2-1.3,0.4c0,0.1-0.1,0.2-0.6,0.2c-0.9,0-1.3,0.1-1.5,0.4c-0.1,0.2-0.2,0.3-0.5,0.3h-0.3l0,1.3
		l0,1.3l11.8,0l11.8,0v-1.3v-1.3l-7,0c-3.8,0-6.9,0-6.8-0.1c0.1,0,0.1-0.2,0.1-0.3c0-0.3,0-0.3,1-0.3c0.9,0,1-0.1,1-0.3
		c0-0.2,0.1-0.3,0.9-0.3c0.9,0,1.1-0.1,1.1-0.5c0-0.2,0.1-0.2,0.9-0.2c0.9,0,0.9,0,1.1-0.3c0.1-0.3,0.2-0.3,1.2-0.4
		c0.9-0.1,1-0.1,1.2-0.3c0.1-0.2,0.3-0.3,0.8-0.3c0.9,0,1.3-0.1,1.3-0.4c0-0.2,0.1-0.3,1-0.3c0.9,0,1-0.1,1-0.3
		c0-0.2,0.1-0.3,0.6-0.3h0.5v-1.4v-1.4h-11.8h-11.8L261.4,34.9 M262.8,46.1c-0.1,0.3-0.2,0.4-0.4,0.4c-0.2,0-0.3,0.1-0.3,0.4
		c0,0.3-0.1,0.4-0.2,0.4c-0.4,0-0.5,0.5-0.5,3.2V53l0.3,0.2c0.3,0.1,0.3,0.3,0.4,0.7c0.1,0.5,0.1,0.5,0.4,0.6c0.2,0,0.5,0.2,0.7,0.4
		l0.4,0.3l3.9,0c4.2,0,4.5,0,4.5-0.4c0-0.2,0.1-0.3,0.4-0.3c0.3,0,0.3,0,0.3-0.4c0-0.3,0-0.4,0.4-0.4c0.3,0,0.4,0,0.4-0.3
		c0-0.2,0.1-0.3,0.3-0.3c0.2,0,0.3-0.1,0.3-0.4c0-0.2,0.1-0.3,0.4-0.4c0.3,0,0.3-0.1,0.4-0.6c0-0.4,0.1-0.6,0.4-0.7
		c0.2-0.1,0.3-0.2,0.3-0.4c0-0.2,0.1-0.3,0.3-0.3c0.2,0,0.3-0.1,0.3-0.3c0-0.2,0.1-0.3,0.4-0.4c0.2-0.1,0.4-0.2,0.4-0.4
		c0-0.2,0.1-0.2,0.2-0.2c0.2,0,0.3-0.1,0.4-0.4l0.1-0.4h2.6h2.6l0.1,0.7c0.1,0.6,0.1,0.7,0.4,0.7c0.3,0,0.3,0,0.3,0.7
		c0,0.7,0,0.7-0.3,0.7c-0.2,0-0.3,0.1-0.3,0.3c0,0.2-0.2,0.4-0.4,0.7l-0.4,0.4l-2.6,0l-2.6,0l0,1.2c0,1.6-0.3,1.4,3.4,1.4
		c3.4,0,3.7,0,3.8-0.4c0-0.2,0.1-0.3,0.4-0.3c0.3,0,0.3,0,0.3-0.4c0-0.2,0.1-0.4,0.2-0.4c0.2,0,0.2-0.4,0.2-3.3c0-2.9,0-3.3-0.2-3.3
		c-0.1,0-0.2-0.1-0.2-0.3c0-0.2-0.1-0.3-0.3-0.3c-0.2,0-0.3-0.1-0.4-0.4l-0.1-0.4h-4c-4.1,0-4.6,0-4.6,0.5c0,0.2-0.1,0.2-0.4,0.2
		c-0.3,0-0.4,0-0.4,0.3c0,0.2-0.1,0.3-0.3,0.3c-0.2,0-0.3,0.1-0.3,0.4c0,0.2-0.1,0.3-0.4,0.4c-0.3,0-0.3,0.1-0.4,0.4
		c0,0.2-0.2,0.5-0.4,0.7c-0.2,0.2-0.3,0.4-0.3,0.6c0,0.3-0.1,0.3-0.3,0.3c-0.2,0-0.3,0.1-0.3,0.3c0,0.2-0.1,0.3-0.4,0.4
		c-0.2,0.1-0.4,0.2-0.4,0.4c0,0.2-0.1,0.3-0.2,0.3c-0.1,0-0.3,0.2-0.3,0.3c0,0.2-0.2,0.3-0.3,0.3c-0.1,0-0.3,0.1-0.4,0.3l-0.1,0.3
		h-2.6h-2.6l0-0.3c0-0.2-0.1-0.3-0.4-0.3l-0.3,0v-1.4c0-1.3,0-1.4,0.3-1.5c0.2-0.1,0.3-0.2,0.3-0.4c0-0.2,0.1-0.2,3-0.2h3v-1.3v-1.3
		h-3.9h-3.9L262.8,46.1 M261.5,57.1c-0.2,0.1-0.2,2.5,0,2.6c0.1,0,2.6,0.1,5.6,0.1h5.5v2.3v2.3h1h1v-2.3v-2.3h4h4l0,2.2
		c0,3,0.1,3.1,1.6,3.1h0.6v-4v-4l-11.7,0C266.9,57.1,261.6,57.1,261.5,57.1 M261.4,70.4l0,3.9h1.2h1.2l0-2.6l0-2.6h4.3h4.3v2.3v2.3
		h1h1v-2.3V69h4h4v2.4c0,2.9,0,3,1.4,3h0.8v-4v-4h-11.8h-11.8L261.4,70.4 M261.5,76.1c-0.1,0.2-0.1,0.7-0.1,1.3l0,1l5.3,0l5.3,0v1.3
		V81l-0.4,0.1c-0.3,0.1-0.4,0.1-0.4,0.7c0,0.6,0,0.6-0.4,0.6c-0.5,0-0.9,0.1-0.9,0.3c0,0.4-0.2,0.5-4.5,0.5h-4.2v0.8v0.8h5.6
		c4.9,0,5.6,0,5.6-0.2c0-0.1,0.1-0.2,0.4-0.2s0.4,0.1,0.4,0.2c0,0.2,0.7,0.2,5.3,0.2s5.3,0,5.3-0.2c0-0.1,0.1-0.2,0.3-0.2
		c0.2,0,0.3-0.1,0.3-0.3c0-0.2,0.1-0.3,0.2-0.3c0.2,0,0.2-0.5,0.2-4v-4h-11.7h-11.7L261.5,76.1 M282.8,79.3c0,0.5,0,1.4-0.1,1.9
		l-0.1,1.1l-0.7,0.1c-0.9,0.1-1,0.2-1.1,0.4c-0.1,0.2-0.2,0.2-2.1,0.2h-2l-0.1-0.3c-0.1-0.3-0.2-0.3-0.8-0.4
		c-0.5-0.1-0.7-0.1-0.7-0.2c0-0.1-0.1-0.2-0.2-0.2c-0.2-0.1-0.2-0.2-0.3-0.8c0-0.6-0.1-0.7-0.4-0.7l-0.3,0v-1v-1h4.4h4.4V79.3"/>
	<path id="path1" class="st0" d="M250.8,31.9c-0.1,0-0.1,0.1-0.1,0.2c0.1,0.6,0,1.1-0.3,1.1c-0.3,0-0.3,0-0.3,0.9V35l-0.4,0.1
		c-0.3,0.1-0.4,0.1-0.4,0.8c0,0.6,0,0.7-0.2,0.6c-0.3-0.1-0.3,0-0.4,1c-0.1,1-0.1,1-0.4,1c-0.2,0-0.2,0.1-0.3,0.9
		c0,0.8-0.1,0.9-0.3,1c-0.3,0.2-0.3,0.2-0.3,0.9c0,0.5-0.1,0.5-0.3,0.6c-0.2,0-0.3,0.1-0.3,1c0,0.6-0.1,1-0.1,0.9
		c-0.4-0.2-0.6,0.1-0.6,0.9c0,0.7-0.1,0.9-0.3,1c-0.1,0.1-0.3,0.1-0.3,0.2c-0.1,0-0.1,0.4-0.1,0.9c0,0.3-0.1,0.4-0.3,0.4
		c-0.2,0-0.3,0.1-0.3,1c0,0.9,0,0.9-0.3,0.9c-0.3,0-0.4,0.2-0.4,1.2c0,0.5-0.1,0.7-0.3,0.8c-0.2,0.1-0.3,0.2-0.3,0.7
		c0,0.5,0,0.6-0.3,0.7c-0.4,0.1-0.4,0.3-0.4,1.2c0,0.8-0.1,0.9-0.5,0.8c-0.1,0-0.2,0.5-0.2,1.3c0,0.4-0.1,0.6-0.3,0.7
		c-0.2,0.1-0.3,0.2-0.3,0.7c0,0.6,0,0.6-0.3,0.7c-0.2,0-0.3,0.1-0.2,0.2c0,0.1,0,0.1-0.1,0.2c-0.1,0-0.1,0.4-0.1,0.8
		c0,0.7,0,0.8-0.3,0.8c-0.3,0-0.3,0-0.3,0.8c0,0.8-0.2,1.2-0.6,1.2c-0.1,0-0.1,0.2-0.1,0.6c0,0.6,0,0.6-0.3,0.7
		c-0.3,0-0.4,0.4-0.4,1.4c0,0.6,0,0.6-0.3,0.6c-0.3,0-0.3,0-0.3,0.7c0,0.6,0,0.7-0.4,1c-0.3,0.3-0.4,0.4-0.4,1c0,0.6,0,0.6-0.2,0.6
		c-0.3,0-0.3,0.1-0.4,1.1c-0.1,0.8-0.1,0.9-0.3,0.9c-0.3,0.1-0.3,0.1-0.3,0.7c0,0.5-0.1,0.7-0.4,1c-0.3,0.3-0.3,0.4-0.3,1
		c0,0.3-0.1,0.6-0.1,0.6c-0.1,0-0.2,0-0.3,0c-0.1,0-0.2,0.3-0.2,0.9c0,0.9,0,0.9-0.4,1c-0.3,0.1-0.4,0.1-0.4,0.8c0,0.6,0,0.7-0.3,1
		c-0.2,0.2-0.3,0.4-0.3,0.5c0,0.1,0,0.3,0,0.4c0,0.1,0,0.3,0,0.4c0,0.2-0.1,0.3-0.3,0.3c-0.2,0-0.3,0.1-0.3,1c0,0.8-0.1,0.9-0.3,0.9
		c-0.3,0-0.4,0.2-0.5,0.9c0,0.3-0.1,0.6-0.2,0.7c-0.3,0.2-0.4,0.6-0.4,1.4v0.7h10.3H252l0-26.5l0-26.5l-0.5,0
		C251.2,31.8,250.9,31.8,250.8,31.9"/>
</g>
</svg>
